<?xml version="1.0" standalone="no"?>
<!DOCTYPE svg PUBLIC "-//W3C//DTD SVG 1.1//EN" "http://www.w3.org/Graphics/SVG/1.1/DTD/svg11.dtd" >
<svg xmlns="http://www.w3.org/2000/svg">
<metadata>
Created by FontForge 20120731 at Tue Jul 25 16:04:59 2017
 By admin
</metadata>
<defs>
<font id="iconfont" horiz-adv-x="1024" >
  <font-face 
    font-family="iconfont"
    font-weight="500"
    font-stretch="normal"
    units-per-em="1024"
    panose-1="2 0 6 3 0 0 0 0 0 0"
    ascent="896"
    descent="-128"
    x-height="792"
    bbox="-15.92 -224 1362 896"
    underline-thickness="0"
    underline-position="0"
    unicode-range="U+0078-E71C"
  />
<missing-glyph 
 />
    <glyph glyph-name=".notdef" 
 />
    <glyph glyph-name=".notdef" 
 />
    <glyph glyph-name=".null" horiz-adv-x="0" 
 />
    <glyph glyph-name="nonmarkingreturn" horiz-adv-x="341" 
 />
    <glyph glyph-name="x" unicode="x" horiz-adv-x="1001" 
d="M281 543q-27 -1 -53 -1h-83q-18 0 -36.5 -6t-32.5 -18.5t-23 -32t-9 -45.5v-76h912v41q0 16 -0.5 30t-0.5 18q0 13 -5 29t-17 29.5t-31.5 22.5t-49.5 9h-133v-97h-438v97zM955 310v-52q0 -23 0.5 -52t0.5 -58t-10.5 -47.5t-26 -30t-33 -16t-31.5 -4.5q-14 -1 -29.5 -0.5
t-29.5 0.5h-32l-45 128h-439l-44 -128h-29h-34q-20 0 -45 1q-25 0 -41 9.5t-25.5 23t-13.5 29.5t-4 30v167h911zM163 247q-12 0 -21 -8.5t-9 -21.5t9 -21.5t21 -8.5q13 0 22 8.5t9 21.5t-9 21.5t-22 8.5zM316 123q-8 -26 -14 -48q-5 -19 -10.5 -37t-7.5 -25t-3 -15t1 -14.5
t9.5 -10.5t21.5 -4h37h67h81h80h64h36q23 0 34 12t2 38q-5 13 -9.5 30.5t-9.5 34.5q-5 19 -11 39h-368zM336 498v228q0 11 2.5 23t10 21.5t20.5 15.5t34 6h188q31 0 51.5 -14.5t20.5 -52.5v-227h-327z" />
    <glyph glyph-name="yunshangchuan" unicode="&#xe600;" 
d="M1024 119q0 -26 -8.5 -48.5t-24.5 -40.5t-37 -30t-46 -16l1 -1h-17h-4h-4h-676q-5 -1 -17 -1q-39 0 -74 15t-61 41t-41 61t-15 75t15 75t41 61t61 41.5t74 15.5h2q-2 8 -2 15v16q0 73 28 137.5t76 112t112 75.5t136.5 28t137 -28t113 -75.5t76 -112t27.5 -137.5
q0 -38 -8 -74t-23 -69q5 1 11 1.5t11 0.5q27 0 52.5 -11t43.5 -29.5t29 -44t11 -53.5zM666 241q20 0 26 4.5t-8 21.5q-14 19 -31.5 48.5t-36.5 60t-38.5 57.5t-37.5 39q-19 13 -27.5 14t-25.5 -12q-18 -15 -35.5 -38.5t-35.5 -50.5t-36 -52.5t-36 -44.5t-13 -33t25 -14h17
q9 0 19.5 -0.5t21.5 -0.5h17q14 -1 18.5 -10t4.5 -24q0 -18 -0.5 -31t-0.5 -25.5t-0.5 -25.5t-0.5 -31q0 -7 1.5 -15t5.5 -15.5t12 -12t22 -4.5h23q9 0 28 -1q24 0 27.5 12.5t3.5 38.5q0 24 1 43t1 51q0 24 4.5 37t19.5 13q11 0 32 0.5t33 0.5z" />
    <glyph glyph-name="fasong" unicode="&#xe601;" 
d="M0 -212l106 474l589 37l-589 40l-106 473l1024 -512z" />
    <glyph glyph-name="fukuanfangshi" unicode="&#xe602;" 
d="M716.5 438q62.5 0 118.5 -23.5t98 -64.5t66.5 -95.5t24.5 -116t-24.5 -117t-66.5 -97t-98 -65.5t-118.5 -24t-116.5 24t-94 65.5t-63 97t-23 117t23 116t63 95.5t94 64.5t116.5 23.5zM886 171h-94l92 89l-46 46l-106 -99l34 -36h-111l33 44l-97 94l-39 -52l88 -86h-80
v-57h138v-45h-138v-50h138v-92h53v92h135v50h-135v45h135v57zM896 719q27 0 50.5 -10.5t41 -27.5t27 -40.5t9.5 -49.5v-152h-140q0 27 -12.5 38t-38.5 11h-626q-27 0 -47 -18t-20 -45v-385q0 -27 20 -46t47 -19h213v-140h-291q-27 0 -50.5 12t-41 32t-27.5 45t-10 51v616
q0 26 10 49.5t27.5 40.5t41 27.5t50.5 10.5h767z" />
    <glyph glyph-name="yangshengqi" unicode="&#xe603;" 
d="M830 -42q-11 -9 -27 -9q-19 0 -33.5 14.5t-14.5 33.5q0 22 17 36q1 1 2 1.5t2 1.5l1 1q27 19 50.5 44.5t41 55t27.5 63.5t10 70q0 73 -37.5 133.5t-92.5 99.5q-21 15 -21 39q0 20 14.5 34t33.5 14q17 0 29 -10q37 -26 68 -59.5t53.5 -73t35 -84.5t12.5 -93
q0 -49 -12.5 -94t-35.5 -85t-54 -73.5t-69 -59.5zM776 397q20 -28 32.5 -57t12.5 -70q0 -39 -13 -70.5t-32 -56.5q-8 -11 -17 -19t-22 -8q-18 0 -30 12.5t-12 29.5q0 8 3 16h-1q5 11 11.5 20.5t13 20t11 23.5t4.5 32q0 17 -4.5 30.5t-11 24t-13 20.5t-10.5 21q-3 6 -3 15
q0 18 12 30.5t30 12.5q13 0 22 -8t17 -19zM460 -183q-50 45 -105.5 93.5t-103.5 89.5q-55 47 -111 93q-11 -1 -22 -1q-8 -1 -18 -1h-17q-26 0 -42.5 16t-16.5 39v246h1l-1 1q0 27 17 44.5t42 17.5h56q90 77 163 137q31 27 61.5 51.5t55 45t41 34.5t20.5 17q29 21 47 19
t28.5 -17.5t14.5 -38t4 -40.5v-789v-3q0 -18 -7 -39t-21 -33.5t-35.5 -10.5t-50.5 29z" />
    <glyph glyph-name="biaoqian" unicode="&#xe604;" 
d="M940 350q45 -53 1 -102l-317 -319q-11 -8 -22.5 -11.5t-24 -2.5t-23 5t-17.5 11q-115 115 -205 206l-76 77q-38 37 -67 66.5t-48 48.5l-19 19q-2 2 -6.5 8.5t-10 17.5t-9.5 24.5t-4 28.5v18q0 15 0.5 36.5t1 47t0.5 52.5q1 62 2 138q2 12 4.5 24.5t13.5 23.5
q10 10 23 13.5t23 3.5h311q2 1 14.5 0.5t15.5 -2.5q6 -2 13.5 -7t12.5 -10zM241.5 575q26.5 0 45 18.5t18.5 45.5t-18.5 45t-45 18t-45.5 -18t-19 -45t19 -45.5t45.5 -18.5z" />
    <glyph glyph-name="rili" unicode="&#xe605;" 
d="M286 678q0 -14 -9.5 -22.5t-22.5 -8.5q-12 0 -21 9t-9 24l-1 71q0 17 9.5 25.5t21.5 8.5q13 0 22.5 -9t9.5 -26v-72zM926 486h-844v107q0 31 17.5 50t47.5 19h710q38 0 53.5 -18.5t15.5 -48.5v-109zM926 78q0 -33 -6.5 -57t-20.5 -40t-38 -23.5t-60 -7.5h-593
q-73 0 -99.5 33.5t-26.5 102.5v329h844v-337zM520 211q-10 0 -17 -7t-7 -17.5t7 -17.5t17 -7t17.5 7t7.5 17.5t-7.5 17.5t-17.5 7zM552 264h78q16 0 21.5 -15.5t-13.5 -34.5q-20 -18 -35 -36.5t-25 -43.5q-9 -21 -9 -38.5t1 -24.5q3 -21 26 -21q8 0 11.5 6.5t3.5 15.5
q0 4 0.5 13.5t3 21t8 23.5t13.5 22q16 18 36.5 37.5t27.5 39.5q3 11 2.5 23.5t-5.5 23.5t-14.5 18.5t-23.5 8.5q-10 1 -24 1h-31q-15 0 -28 -0.5t-19 -0.5q-11 0 -16 -6.5t-6 -11.5q0 -7 4.5 -14t12.5 -7zM356 268q5 2 12.5 2t14.5 -2.5t13 -8t10 -14.5q3 -15 -5 -28
t-16 -17q-9 -5 -8 -14.5t8 -13.5q6 -4 13.5 -8t12.5 -19q1 -6 0.5 -14.5t-5 -17t-11.5 -15t-18 -8.5q-22 -4 -34 6t-14 18q-3 8 -10.5 10.5t-13.5 0.5q-9 -2 -11.5 -11.5t-0.5 -14.5t9.5 -17t29.5 -24q10 -6 27.5 -7.5t35 2t33 15t24.5 31.5q7 18 6 32.5t-6 25.5t-10.5 17
t-6.5 8q-5 5 -4.5 11t5.5 11q6 9 9.5 18t1.5 24q0 7 -2.5 16.5t-9.5 18.5t-19 16t-31 10t-34 -1.5t-26 -12t-17 -16.5t-8 -13q-4 -9 -1 -19t11 -12t13 2.5t8 9.5q2 5 8 11.5t17 11.5zM783 679q0 -14 -8.5 -23t-20.5 -9q-14 0 -22.5 8.5t-8.5 23.5v76q0 17 8.5 23.5t22.5 6.5
q12 0 20.5 -7.5t8.5 -24.5v-74z" />
    <glyph glyph-name="jishiqi" unicode="&#xe606;" 
d="M816 573q6 5 12 9l10 8q6 4 10 7q10 9 22.5 7.5t20.5 -10t9 -22t-7 -21.5l-8.5 -8.5l-10.5 -10.5q-6 -5 -13 -11q13 -16 26 -42.5t24.5 -58.5t18.5 -67.5t7 -70.5q0 -85 -32.5 -160t-88 -130.5t-130 -88t-160 -32.5t-160.5 32.5t-130.5 88t-88 130.5t-32.5 160.5
t32.5 160t88 130t130.5 88t160 32.5q88 0 163 -33t127 -87zM527 619q-70 0 -131.5 -26.5t-107 -72.5t-72 -107.5t-26.5 -131.5t26.5 -131.5t72 -107.5t107 -72t131.5 -26t131.5 26t107.5 72t72.5 107.5t26.5 131.5t-26.5 131.5t-72.5 107.5t-107.5 72.5t-131.5 26.5z
M595 755q0 -14 -7 -26t-17 -20t-22 -12t-22 -4q-11 0 -23 4t-22.5 12t-17 19.5t-6.5 26.5v57h137v-57zM546 271q-9 -6 -18 -5.5t-15 8.5q-6 7 -5 16t9 17l208 176q7 5 17 5t16 -8t5 -17t-10 -17zM558 561q0 -12 -9 -21.5t-22 -9.5t-22 9.5t-9 21.5q0 13 9 22t22 9t22 -9
t9 -22zM294 282q0 -13 -9 -22t-22 -9t-22 9t-9 22t9 22t22 9t22 -9t9 -22zM557 10.5q0 -13.5 -9 -22.5t-22 -9t-22 9t-9 22.5t9 22t22 8.5t22 -8.5t9 -22zM820 282q0 -13 -9 -22t-21 -9q-14 0 -23 9t-9 22t9 22t23 9q12 0 21 -9t9 -22z" />
    <glyph glyph-name="pingbandiannao" unicode="&#xe607;" 
d="M902 622q43 -1 64.5 -24.5t21.5 -60.5v-42q0 -37 -0.5 -89t-0.5 -112t-0.5 -112t-0.5 -90v-45q0 -33 -19 -55t-46 -22h-785q-33 1 -57.5 24t-24.5 60v482q0 16 6 31.5t16.5 27.5t26 20t35.5 8h44h88h117h133h131q66 0 118.5 -0.5t88.5 -0.5h44zM857 525h-694l1 -452
l692 1zM924.5 335q-15.5 0 -26.5 -11t-11 -26t11 -26t26.5 -11t27 11t11.5 26t-11.5 26t-27 11z" />
    <glyph glyph-name="liwu" unicode="&#xe608;" 
d="M474 685h-134q-14 0 -21.5 6.5t-10.5 16.5t-3 22t2 23q1 11 4 24t8.5 22t14.5 12t22 -5q15 -9 33.5 -19.5t36.5 -21t33.5 -19t23.5 -13.5q10 -6 15 -14.5t4 -16t-8 -12.5t-20 -5zM552 686h133q14 0 21.5 6.5t10.5 16.5t3 22t-1 23q-2 11 -4.5 23.5t-8 21.5t-14.5 12
t-22 -4q-15 -9 -34 -19.5t-37 -21t-33.5 -19t-22.5 -13.5q-11 -6 -16 -14.5t-4 -16t8 -12.5t21 -5zM460 620h-288q-32 0 -41.5 -10.5t-9.5 -33.5v-87q0 -25 10.5 -37t41.5 -12h287v180zM569 620h284q32 0 43.5 -12.5t11.5 -35.5v-85q0 -24 -10.5 -35.5t-41.5 -11.5h-287v180
zM460 387h-305v-163v-65v-60v-52v-36q0 -51 28.5 -79t89.5 -28h187v483zM569 387h304v-373q-1 -51 -28.5 -80.5t-88.5 -29.5h-187v483z" />
    <glyph glyph-name="xianshiqi" unicode="&#xe609;" 
d="M672 22q0 -11 -7 -20t-19 -9l-244 1q-11 -1 -17.5 9t-6.5 19t6 19t18 10h76v65h-341q-34 0 -55 19t-21 51v509q0 33 20 49.5t53 16.5h756q33 0 52.5 -18t19.5 -48v-509q0 -31 -18 -49t-54 -18h-319v-69h74q11 0 19 -8.5t8 -19.5zM891 648h-768v-359h768v359zM566 246h-87
v-78h87v78z" />
    <glyph glyph-name="zhaoxiangji" unicode="&#xe60a;" 
d="M678 317q0 -28 -11 -53t-29 -43.5t-43 -29.5t-53.5 -11t-53 11t-43 29.5t-29 43.5t-10.5 53t10.5 53t29 43.5t43 29.5t53 11t53.5 -11t43 -29.5t29 -43.5t11 -53zM171 45q-29 0 -51.5 5t-37.5 17.5t-23.5 33.5t-8.5 53v346q0 57 27 79.5t86 22.5h172q16 0 27 6t17.5 16.5
t11.5 24t11 28.5q11 26 36.5 45.5t58.5 19.5h95q38 0 62 -21t32 -44q11 -31 29.5 -53t39.5 -22h130q45 1 71.5 -24.5t26.5 -74.5v-351q0 -53 -27.5 -80t-73.5 -27h-711zM540 531q-45 0 -84 -16.5t-68 -46t-45.5 -68.5t-16.5 -83q0 -45 16.5 -83.5t45.5 -67.5t68 -46t84 -17
q44 0 83 17t67.5 46t45.5 67.5t17 83.5q0 44 -17 83t-45.5 68.5t-67.5 46t-83 16.5zM611 642q0 16 -1.5 25.5t-20.5 9.5h-85q-20 1 -21.5 -8.5t-1.5 -26.5q-1 -19 2 -27.5t21 -8.5h85q19 0 20.5 9.5t1.5 26.5z" />
    <glyph glyph-name="shouji" unicode="&#xe60b;" 
d="M820 15q0 -25 -10 -47t-27.5 -38.5t-41 -26t-51.5 -9.5h-357q-28 0 -51.5 9.5t-41 26t-27.5 38.5t-10 47v675q0 25 10 47.5t27.5 39t41 26t51.5 9.5h357q28 0 51.5 -9.5t41 -26t27.5 -39t10 -47.5v-675zM739 642h-456v-578h456v578zM511 36q-21 0 -36.5 -15t-15.5 -37
t15.5 -37.5t36.5 -15.5q22 0 37 15.5t15 37.5t-15 37t-37 15zM592 727q0 8 -5 12.5t-12 4.5h-128q-5 0 -10.5 -4.5t-5.5 -12.5t5 -12.5t11 -4.5h128q7 0 12 4.5t5 12.5z" />
    <glyph glyph-name="duihua" unicode="&#xe60c;" horiz-adv-x="1220" 
d="M829.5 692q79.5 1 150.5 -28.5t123.5 -81.5t84 -122t32.5 -150q1 -76 -26.5 -143t-75 -118.5t-112.5 -85t-140 -41.5q-39 -5 -90.5 -7.5t-133.5 5.5q-46 4 -80 10t-56 12.5t-31 11t-5 5.5q50 9 80 26q17 10 14 28t-17 33q-44 49 -72.5 114.5t-29.5 142.5q-1 80 29 150.5
t82 123.5t123 83.5t150.5 31.5zM705.5 235q27.5 0 46.5 19.5t19 46.5t-19 46.5t-46.5 19.5t-46.5 -19.5t-19 -46.5t19 -46.5t46.5 -19.5zM960.5 237q26.5 0 45.5 18t19 45t-19 46t-45.5 19t-45 -19t-18.5 -46t18.5 -45t45 -18zM382 45q0 -37 -14 -69t-35 -57
q-7 -8 -8.5 -16.5t6.5 -13.5q4 -2 10 -7.5t12.5 -11t14 -10t13.5 -5.5q-24 -6 -46 -3.5t-61 2.5q-20 0 -34.5 0.5t-25 1t-19.5 1.5l-19 2q-37 4 -68.5 19.5t-55 41.5t-37 58.5t-13.5 70.5q0 39 15.5 73.5t41.5 60t61 40t75 14.5q38 0 72.5 -15.5t60 -41.5t40 -61t14.5 -74z
" />
    <glyph glyph-name="tishi" unicode="&#xe60d;" 
d="M642 -83v-11q0 -5 0.5 -11t0.5 -12q-1 -20 -10.5 -43t-37.5 -33q-11 -4 -28.5 -11.5t-53.5 -7.5q-30 0 -50 7t-31 9q-15 3 -23.5 13t-13 22t-5.5 24.5t-1 23.5v31zM863 582q26 -62 30 -117t-6 -101t-29.5 -82.5t-40 -64t-39 -45.5t-25.5 -24q-10 -9 -18.5 -13.5
t-15.5 -7.5t-13 -7.5t-12 -13.5q-13 -19 -20 -37.5t-13 -35.5q-5 -14 -11 -23t-13 -17q-8 -8 -16 -13h-224q-8 5 -15 13t-14.5 19t-12.5 28q-10 30 -24.5 47.5t-38.5 35.5q-16 12 -37 32t-41 47.5t-38.5 61.5t-29.5 75t-13 87t9 97q17 82 60 137t95.5 89t109 48.5
t102.5 14.5q48 0 99.5 -13t100 -41t88.5 -71.5t66 -104.5zM760 375q44 178 -114 271q-26 17 -61 26t-72 9t-73 -9t-64 -29q-69 -48 -93.5 -103.5t-22.5 -117.5q1 -35 11.5 -62.5t25.5 -50t30.5 -39t27.5 -29.5q26 -27 45 -47t31 -50q11 -30 35 -36.5t44 -6.5q26 0 50.5 12
t34.5 36q5 14 21 34.5t48 57.5q16 19 30.5 33t27.5 28.5t22.5 31t15.5 41.5z" />
    <glyph glyph-name="jinggao" unicode="&#xe60e;" horiz-adv-x="1044" 
d="M595 695l21 -35t45 -76t61 -104.5t69.5 -119.5t71 -121t64.5 -110t50 -86t30 -49q15 -26 18.5 -51.5t-3 -46t-23.5 -33.5t-41 -12q-13 0 -53 1t-96 1h-128h-144q-74 0 -146.5 -1t-135.5 -1h-110h-69q-39 0 -60 13.5t-28 34.5t-1.5 45.5t19.5 46.5q7 11 28 46t51 84.5
t65.5 109.5t72.5 122t72 120t62.5 105.5t46.5 77.5l21 36q14 23 37 34.5t48 11.5t48 -10.5t37 -32.5zM569 495q0 12 -5.5 22.5t-14.5 19.5t-21 14t-24 5q-24 0 -44 -18.5t-20 -41.5v-269q0 -23 20 -42t44 -19t44.5 18t20.5 41v270zM504 105q-27 0 -46 -18t-19 -45t19 -46
t46 -19t45 19t18 46t-18 45t-45 18z" />
    <glyph glyph-name="bangzhu" unicode="&#xe60f;" 
d="M513 781q99 0 187 -37.5t154 -104t103.5 -154.5t37.5 -187q0 -100 -37.5 -188.5t-103.5 -154t-154 -103t-187 -37.5q-100 0 -188 37.5t-154 103t-103.5 154t-37.5 188.5q0 99 37.5 187t103.5 154.5t154 104t188 37.5zM544 -61q28 0 48 19.5t20 48.5q0 30 -20 50t-48 20
q-30 0 -50 -20t-20 -50q0 -29 20 -48.5t50 -19.5zM609 217q0 13 19 31.5t42 46t42.5 63.5t19.5 85q0 33 -12.5 69t-40.5 65.5t-71.5 49t-104.5 19.5q-72 0 -114.5 -25t-64.5 -61t-28.5 -74.5t-6.5 -64.5q0 -25 20.5 -35t44.5 -8.5t44.5 14t20.5 34.5q0 13 1.5 29.5t10 31.5
t26 24.5t48.5 9.5q48 0 76 -26.5t28 -62.5q0 -30 -20 -57.5t-43.5 -50.5t-43.5 -41t-20 -28v-75q0 -9 20 -13.5t43.5 -4t43.5 5.5t20 16v33z" />
    <glyph glyph-name="zhanghu" unicode="&#xe610;" horiz-adv-x="1154" 
d="M1016 747q62 0 99.5 -31.5t37.5 -96.5v-568q0 -27 -10 -52t-28 -43t-42 -29t-51 -11h-893q-27 0 -50.5 10t-41 27t-27.5 39.5t-10 48.5v581q0 55 34 90t95 35h887zM288 558q-20 0 -37.5 -7t-30.5 -20t-21 -31t-8 -38.5t8 -38t21 -30.5t30.5 -20.5t37.5 -7.5q21 0 39 7.5
t31 20.5t20.5 30.5t7.5 38.5q0 42 -27.5 69t-70.5 27zM449 204q0 19 -8 37t-20.5 31t-30.5 20.5t-38 7.5h-128q-40 0 -67.5 -28t-27.5 -68v-4v-93h320v93v4zM924 102q20 0 30 10.5t10 25t-11.5 25t-31.5 10.5h-306q-20 0 -30.5 -10.5t-10.5 -25t10.5 -25t29.5 -10.5h310z
M925 234q20 0 29.5 10.5t9.5 24.5q0 16 -9 26t-29 10h-314q-20 0 -29.5 -10t-9.5 -26q0 -14 9 -24.5t29 -10.5h314zM926 365q15 0 26.5 10t11.5 24.5t-11.5 23t-26.5 8.5h-208q-16 0 -26.5 -8.5t-10.5 -23t10.5 -24.5t26.5 -10h208z" />
    <glyph glyph-name="jianqie" unicode="&#xe611;" 
d="M883 146q33 -21 53 -56.5t20 -77.5q0 -34 -12.5 -62.5t-34 -50t-50.5 -34t-63 -12.5q-42 0 -77 20t-56 53q-4 4 -7 8.5t-8 9.5q-17 22 -21 54.5t-3 67.5t2 69t-5 60q-11 20 -25 44t-31 48q-3 4 -5.5 7t-4.5 6q-20 -23 -38 -46.5t-37 -48.5q-5 -6 -9 -12t-9 -12
q-9 -19 -9 -33.5t3.5 -28t8 -27.5t5 -33t-5 -44.5t-21.5 -60.5q-17 -46 -57.5 -74.5t-92.5 -28.5q-33 0 -62 12.5t-50.5 34.5t-34.5 50.5t-13 62.5q0 36 15.5 67.5t41.5 53.5q25 27 53 44.5t55.5 32.5t52 30.5t43.5 36.5q4 5 7.5 10t7.5 10l1 1q4 8 11 15q14 19 28 38.5
t30 39.5q-27 28 -45.5 45t-35.5 40q-36 47 -60 97.5t-37.5 96t-14 81.5t12.5 53q7 5 20.5 7.5t21.5 -9.5q18 -27 41.5 -62.5t50.5 -76.5t56.5 -85.5t58.5 -87.5q7 8 12.5 16.5t11.5 16.5q27 39 52.5 81t47 80.5t38.5 69.5t26 47q7 11 24 11.5t29 -10.5q6 -6 11 -34.5
t-3 -74.5t-32.5 -105t-77.5 -126l-32 -40q-16 -21 -34 -41q24 -35 44.5 -66.5t37.5 -56.5q26 -27 51.5 -42t49 -25.5t43.5 -19.5t36 -24zM292.5 -62q32.5 0 55 23t22.5 55.5t-22.5 56t-55 23.5t-56 -23.5t-23.5 -56t23.5 -55.5t56 -23zM795 -62q33 0 55.5 22.5t22.5 55
t-22.5 56t-55 23.5t-56 -23.5t-23.5 -55.5q0 -16 6.5 -30.5t17 -25t25 -16.5t30.5 -6z" />
    <glyph glyph-name="wenjian" unicode="&#xe612;" 
d="M815 742q28 -25 44.5 -42t25 -29t10.5 -20t2 -14v-16h-152q-10 0 -17.5 7.5t-12.5 17.5t-7.5 21t-2.5 17v127h3q8 0 16.5 -2.5t20 -9.5t28.5 -20.5t42 -36.5zM640 683q0 -21 6 -43t19.5 -40.5t34 -31t48.5 -12.5h149v-578q0 -29 -12 -52.5t-31 -40t-43 -26t-46 -9.5h-504
q-19 0 -42 11.5t-43 30t-33.5 42t-13.5 49.5v696q0 21 9.5 44t26.5 42.5t38.5 32.5t45.5 13h391v-128zM705 44q26 0 44.5 19t18.5 45.5t-18.5 45t-44.5 18.5h-384q-27 0 -45.5 -18.5t-18.5 -45t18.5 -45.5t45.5 -19h384zM768 363.5q0 26.5 -18.5 45.5t-44.5 19h-384
q-27 0 -45.5 -19t-18.5 -45.5t18.5 -45t45.5 -18.5h384q26 0 44.5 18.5t18.5 45z" />
    <glyph glyph-name="fuzhiwenjian" unicode="&#xe613;" 
d="M639 620q30 0 54 -13t41.5 -32.5t26.5 -42t9 -40.5v-576q0 -30 -11.5 -53.5t-30.5 -40t-42.5 -25.5t-46.5 -9h-504q-19 0 -42 11t-43 29.5t-33 42.5t-13 49v568q0 22 10 45t26.5 42.5t38 32t44.5 12.5h516zM578 -18q27 0 46 18.5t19 45t-19 45.5t-46 19h-382
q-27 0 -46 -19t-19 -45.5t19 -45t46 -18.5h382zM578 237q27 0 46 18.5t19 45t-19 45.5t-46 19h-382q-27 0 -46 -19t-19 -45.5t19 -45t46 -18.5h382zM759 812q44 0 80.5 -26t64 -64.5t42.5 -82.5t15 -81v-542q0 -22 -12.5 -40t-31 -30.5t-40 -20t-39.5 -7.5h-4v609
q-9 71 -44.5 108.5t-94.5 48.5h-498q1 2 1 8q0 20 12 41.5t32 39t44.5 28.5t48.5 11h424z" />
    <glyph glyph-name="suoding" unicode="&#xe614;" 
d="M385 426h-129v151q0 49 19.5 91.5t54 74.5t81 50.5t101.5 18.5q49 0 94.5 -18.5t81 -50.5t56.5 -74.5t21 -91.5v-151h-124v122q0 65 -36 100t-97 35q-55 0 -89 -35t-34 -100v-122zM826 365q28 0 48 -20t20 -48v-317q0 -27 -10 -51t-27 -42t-40 -28.5t-50 -10.5h-517
q-28 0 -50.5 10.5t-38 27.5t-24.5 39.5t-9 47.5v324q0 28 19.5 48t47.5 20h61h129h256h124h61z" />
    <glyph glyph-name="ziti" unicode="&#xe615;" 
d="M913 -212h-66q-30 0 -51.5 5t-37 16t-26 27.5t-19.5 37.5q-16 39 -28.5 70.5t-21.5 55.5q-12 27 -21 49h-255q-7 -23 -17 -51q-9 -24 -22 -57t-31 -72q-20 -46 -46.5 -63.5t-60.5 -17.5h-71q-45 0 -61 20t3 68q18 46 42.5 108.5t52.5 132.5t57.5 144t57.5 144
q65 165 137 344q7 17 18 31q11 12 27.5 22t42.5 10q27 0 44 -11t28 -24q12 -15 19 -34q73 -180 138 -345q28 -70 58 -143.5t57 -142.5t51 -129.5t41 -104.5q15 -35 4.5 -62.5t-43.5 -27.5zM616 177l-97 347h-1l-108 -347h206z" />
    <glyph glyph-name="bingtu" unicode="&#xe616;" 
d="M959 272v-3q0 -86 -32.5 -162t-89 -132.5t-132.5 -89t-162 -32.5t-162.5 32.5t-133 89t-89 132.5t-32.5 162q0 74 24.5 141t67.5 120.5t102 91t129 53.5v-314q0 -35 7.5 -60.5t25 -40.5t45.5 -22t69 -7zM552 301q-11 0 -25 7t-14 31v370q0 17 8.5 24.5t32.5 7.5
q10 0 41.5 -1.5t75 -11.5t95 -33t102.5 -67q37 -31 56.5 -67t29 -67.5t11 -54.5t1.5 -27q0 -16 -7.5 -27t-26.5 -16q-7 -2 -37 -8t-71 -13.5t-87 -15.5t-86 -15t-68 -11.5t-31 -4.5z" />
    <glyph glyph-name="jingquedingxiang" unicode="&#xe617;" 
d="M538.5 812q100.5 0 188.5 -38t153.5 -103.5t103 -153.5t37.5 -187q0 -100 -37.5 -187.5t-103 -153.5t-153.5 -104t-188.5 -38t-188 38t-153 104t-103 153.5t-37.5 187.5q0 99 37.5 187t103 153.5t153 103.5t188 38zM899 362q-6 65 -34 123t-71.5 102t-101 71.5
t-123.5 32.5v-98q45 -6 85 -25.5t70 -50t50 -70.5t25 -85h100zM569 362h127q-9 48 -43.5 83t-83.5 44v-127zM508 489q-49 -9 -84.5 -43.5t-44.5 -83.5h129v127zM379 299q9 -49 44.5 -84t84.5 -44v128h-129zM569 172q49 9 83.5 43.5t43.5 83.5h-127v-127zM508 692
q-67 -6 -124.5 -33.5t-101.5 -71.5t-71.5 -102t-33.5 -123h97q5 46 25 86t51 70.5t71.5 50t86.5 24.5v99zM177 299q7 -65 34.5 -123t71.5 -101.5t101.5 -71t123.5 -32.5v97q-46 5 -86.5 24.5t-71.5 50.5t-51 70.5t-25 85.5h-97zM569 -29q66 6 123 33.5t101 71t71.5 101
t33.5 122.5h-99q-5 -45 -25 -84.5t-50 -70.5t-70 -50.5t-85 -25.5v-97z" />
    <glyph glyph-name="guanggaozhu" unicode="&#xe618;" 
d="M643 238q33 53 49.5 108t14.5 109q-1 46 0.5 86.5t5.5 75.5h243q30 0 48.5 -16.5t18.5 -46.5v-316h-380zM613 128q25 -11 55 -18.5t58 -18t50 -27t31 -43.5q5 -15 8 -38.5t3 -47.5t-3.5 -45.5t-10.5 -32.5q-6 -8 -29.5 -16t-58.5 -15.5t-78 -14.5t-86 -12t-83 -7.5
t-69.5 -2.5t-67.5 3t-78.5 7.5t-79.5 11t-71.5 12.5t-55 12t-28.5 11q-10 8 -16 50t4 108q6 37 31 56.5t57.5 30.5t68 20t62.5 27q21 13 32.5 25t16.5 24t5 25.5t-1 29.5q-2 24 -16.5 37t-31.5 27q-9 7 -15 19.5t-11 26.5q-5 15 -10 31q-7 2 -14 8q-7 5 -13.5 14t-11.5 26.5
t-3.5 31t5.5 24.5t12 21q-1 39 4 77q5 33 15.5 69t30.5 66q20 29 43.5 46.5t48 28t49.5 14t48 3.5q29 0 56.5 -6.5t51 -18t41 -25.5t29.5 -29q26 -33 38.5 -71.5t17.5 -73.5q5 -41 5 -81q7 -4 11 -12q4 -7 7 -18.5t0 -27.5q-2 -22 -9 -34.5t-14 -19.5q-9 -9 -18 -12
q-6 -17 -11 -31t-12 -26t-15 -19q-10 -9 -17.5 -14.5t-13.5 -12t-10 -14.5t-6 -21q-2 -15 -1.5 -31t8 -31t23.5 -29.5t43 -25.5zM478 -89q0 6 -3 23t-6.5 37t-7.5 38l-6 27q15 11 23 31q2 6 -2.5 14t-12.5 15q-9 8 -22 17h-51q-11 -9 -19 -17q-7 -7 -12 -15t-2 -13
q5 -10 9 -17t9 -13q-2 -7 -6 -23.5t-9.5 -36.5t-9 -38t-3.5 -27q0 -5 9 -15t20.5 -19.5t23 -17t16.5 -7.5q6 0 16 7t20.5 16t18 18.5t7.5 15.5zM1009 172q7 0 10.5 -10t3.5 -20q0 -11 -3.5 -22t-10.5 -11h-209q-14 23 -31 38t-34 25h274z" />
    <glyph glyph-name="yunxiazai" unicode="&#xe619;" 
d="M1024 63q0 -25 -8.5 -47.5t-24 -41t-36.5 -30.5t-46 -16v-2h-21h-1h-665q-2 0 -2.5 -0.5t-2.5 -0.5t-3 0.5t-3 0.5h-6v1q-43 2 -80.5 19.5t-65 46.5t-43.5 67.5t-16 81.5t16 81t43 66.5t63.5 47t78.5 21.5q7 67 36.5 125t76 101t107 67.5t129.5 24.5q73 0 137.5 -27.5
t112 -76t75 -112.5t27.5 -136q0 -33 -6 -64.5t-17 -59.5q2 0 4.5 0.5t4.5 0.5q28 0 53 -11t43 -29.5t29 -43.5t11 -54zM687 215q12 20 7 23.5t-25 3.5q-13 0 -35 0.5t-33 0.5q-16 0 -21 13t-5 37q0 33 -0.5 53t-0.5 43q0 27 -3.5 39t-28.5 12q-19 0 -28 -0.5t-26 -0.5
q-27 0 -34 -15.5t-7 -31.5v-33q0 -13 1 -25t1 -26v-30q0 -16 -4.5 -24.5t-19.5 -8.5q-6 -1 -17 -1.5l-22 -1t-21 -0.5h-17q-21 0 -25.5 -13.5t13.5 -33.5q17 -22 37 -47t39.5 -50.5t37.5 -49.5t33 -42q28 -31 54 1q15 18 35.5 45.5t42 57.5t41 58.5t31.5 46.5z" />
    <glyph glyph-name="tianjiayonghu" unicode="&#xe61a;" 
d="M763 -126q-43 0 -81.5 16.5t-67 45t-45 67t-16.5 81.5t16.5 81.5t45 66.5t67 44.5t81.5 16.5t81.5 -16.5t66.5 -44.5t44.5 -66.5t16.5 -81.5t-16.5 -81.5t-44.5 -67t-66.5 -45t-81.5 -16.5zM866 118h-75v70q0 15 -9.5 25t-24 10t-22.5 -10t-8 -25v-70h-67
q-14 0 -24 -10.5t-10 -24.5t10 -21.5t24 -7.5h67v-72q0 -15 8 -25t22.5 -10t24 10t9.5 25v72h75v-2q15 0 25 8.5t10 22.5t-10 24.5t-25 10.5zM613 373q-4 -17 -8 -30q-4 -11 -10 -23t-13 -18q-10 -7 -13.5 -15.5t-6 -17t-5.5 -17.5t-10 -19q-24 -30 -35.5 -59t-16.5 -55.5
t-2.5 -52.5t8.5 -51q4 -18 12 -38t24 -41t40.5 -41t61.5 -38q-25 -6 -57 -10q-28 -3 -68.5 -5.5t-92.5 -2.5q-27 0 -62 2t-72.5 5t-74 7.5t-66.5 9t-51 9.5t-26 9q-10 8 -15 45.5t3 98.5q5 33 27 51t52 28.5t62 19t57 23.5q19 13 29.5 23.5t14.5 22t4 23.5t-1 27
q-2 21 -15 33.5t-27 24.5q-8 6 -14 18.5t-10 23.5q-6 13 -9 30q-7 2 -13 6q-5 4 -11 12t-12 25q-5 15 -3.5 28.5t6.5 22.5q4 11 11 19q0 35 4 70q4 30 12.5 63.5t28.5 60.5q18 26 39 42t43.5 25.5t45 13t43.5 3.5q26 0 51 -6t46 -16.5t37 -23t27 -26.5q23 -30 34 -65.5
t16 -67.5q5 -37 4 -74q6 -5 10 -12q4 -6 6 -16.5t0 -25.5q-2 -19 -8 -30.5t-13 -17.5q-8 -7 -18 -10z" />
    <glyph glyph-name="zhantie" unicode="&#xe6b5;" 
d="M625 431q23 -21 38.5 -36t24 -25t11.5 -16.5t3 -12.5v-355q0 -30 -9 -54.5t-26.5 -43t-41.5 -29t-53 -10.5h-388q-23 0 -44.5 7.5t-38.5 22.5t-27.5 39.5t-10.5 56.5v388q0 26 11 49t28.5 40.5t39 27.5t42.5 10h348q8 0 15 -2t17 -8t24.5 -17.5t36.5 -31.5zM492 44
q11 0 19 11t8 22t-8 21.5t-19 10.5h-275q-11 0 -19.5 -10.5t-8.5 -21.5t8.5 -22t19.5 -11h275zM492 232q11 0 19 14t8 26t-8 22.5t-19 10.5h-214q-12 0 -19.5 -10.5t-7.5 -22.5t7.5 -26t19.5 -14h214zM813 744q76 0 111 -39t35 -104v-606q0 -77 -35 -107.5t-110 -30.5h-48
v137h10q27 0 42 10.5t15 42.5v487q0 21 -8 37t-20.5 27t-28 17.5t-31.5 6.5h-114v-24q0 -17 -12 -29t-29 -12h-140q-18 0 -29 12t-11 29v24h-119q-23 0 -39 -16t-16 -40v-16h-110v53q0 68 38.5 104.5t104.5 36.5h544z" />
    <glyph glyph-name="tupian" unicode="&#xe685;" 
d="M285.5 632q21.5 0 41 -8.5t34 -22.5t22.5 -33.5t8 -42.5q0 -21 -8 -40t-22.5 -33.5t-34 -22.5t-41 -8t-41 8t-33.5 22.5t-22.5 33.5t-8.5 40q0 23 8.5 42.5t22.5 33.5t33.5 22.5t41 8.5zM964 812q24 0 42 -18t18 -41v-906q0 -23 -18 -41t-42 -18h-905q-24 0 -41.5 18
t-17.5 41v906q0 23 17.5 41t41.5 18h905zM933 660q0 26 -17.5 44t-43.5 18h-721q-26 0 -43.5 -18t-17.5 -44v-360q0 -30 15 -56.5t42.5 -47.5t66.5 -33.5t87 -13.5q69 -1 111.5 18.5t73.5 49.5t58 64.5t64.5 65.5t92.5 52t142 22q15 1 17.5 0.5t6.5 -0.5t17 -0.5t49 0.5v239
z" />
    <glyph glyph-name="xing" unicode="&#xe61b;" horiz-adv-x="1000" 
d="M517 633q36 -64 98 -175q18 -31 53 -37q94 -18 177 -33q-60 -68 -131 -145q-24 -26 -19 -62q11 -81 21 -167q-64 32 -161 79l-5 2q-15 8 -33 8q-17 0 -33 -7l-1 -1q-88 -42 -168 -80q11 92 22 167q5 36 -20 62q-58 62 -132 144l180 33v0q34 7 52 37l3 6t9 16t13.5 23
t16.5 29t18.5 32t20 34.5t19.5 34.5zM517 754q-20 0 -43 -43l-123 -215q-139 -26 -228 -42q-32 -5 -42.5 -28t6.5 -42q28 -32 71.5 -80t73.5 -80l29 -31q-18 -131 -28 -221q-3 -25 9 -39.5t33 -14.5q13 0 28 7q64 31 214 102q145 -71 212 -103q14 -7 28 -7q20 0 31.5 14.5
t9.5 39.5q-4 40 -11 95t-12 90.5l-5 35.5q110 119 172 191q17 20 6.5 43t-42.5 28l-224 42q-75 133 -122 215q-21 37 -38 42q-2 1 -5 1v0z" />
    <glyph glyph-name="zuosanjiao" unicode="&#xe6a2;" horiz-adv-x="1000" 
d="M514 -154zM951 -120l-460 436l460 437v-873z" />
    <glyph glyph-name="dingyue" unicode="&#xe6e7;" horiz-adv-x="1000" 
d="M951 -120l1 20q0 116 -31 227t-86 204.5t-134 172.5t-173 134.5t-204.5 86t-227.5 30.5h-20v-139q150 0 286.5 -58.5t235 -157t156.5 -234.5t58 -286h139zM633 -120v20q0 109 -42.5 208.5t-114.5 171.5t-171.5 114.5t-208.5 42.5l-20 -1v-138q114 0 210 -56t152 -152.5
t56 -209.5h139zM76 -0.5q0 -49.5 35 -84.5t84.5 -35t84.5 35t35 84.5t-35 84.5t-84.5 35t-84.5 -35t-35 -84.5z" />
    <glyph glyph-name="shangsanjiao" unicode="&#xe6a3;" horiz-adv-x="1000" 
d="M35 38l434 593l433 -593h-867z" />
    <glyph glyph-name="zan" unicode="&#xe61c;" horiz-adv-x="1000" 
d="M961 336q0 -53 -29 -96q5 -20 5 -42q0 -45 -22 -85q1 -13 1 -26q0 -60 -35 -106q0 -83 -51 -130.5t-135 -47.5h-21h-56q-57 0 -112.5 13t-128.5 39q-69 24 -83 24h-171q-31 0 -53.5 22t-22.5 54v381q0 32 22.5 54t53.5 22h163q22 14 82 92q34 45 63 77q15 14 21.5 50.5
t18 75.5t37.5 64q23 22 53 22q50 0 90 -19.5t61 -60.5t21 -110q0 -56 -29 -115h105q62 0 107 -45t45 -107zM188 -33.5q11 11.5 11 27t-11 26.5t-26.5 11t-27 -11t-11.5 -26.5t11.5 -27t27 -11.5t26.5 11.5zM885 336q0 30 -23.5 53t-52.5 23h-210q0 35 28.5 95t28.5 96
q0 58 -19 86t-76 28q-15 -16 -22 -51q-7 -34 -19 -74q-11 -40 -35 -66q-14 -14 -46 -54q-1 -1 -14 -18q-10 -13 -18 -24q-8 -9 -21 -25t-23.5 -26.5t-23 -21t-23.5 -16.5q-12 -5 -22 -5h-19v-381h19q8 0 19 -2q11 -1 20 -4q7 -1 23 -6q11 -4 20 -7l21 -7q15 -6 18 -7
q125 -43 203 -43h72q115 0 114 99q0 16 -2 34q17 9 27.5 31t10.5 43.5t-10 41.5q31 29 31 70q0 15 -6 34q-6 18 -15 28q19 0 32 27.5t13 48.5z" />
    <glyph glyph-name="caidan" unicode="&#xe61d;" horiz-adv-x="1000" 
d="M77 689h118v-117h-118v117zM317 689h633v-117h-633v117zM77 366h118v-118h-118v118zM317 366h633v-118h-633v118zM77 63h118v-118h-118v118zM317 63h633v-118h-633v118z" />
    <glyph glyph-name="jia" unicode="&#xe61e;" horiz-adv-x="1000" 
d="M821 345h-278v278q0 18 -12.5 30.5t-30.5 12.5t-30.5 -12.5t-12.5 -30.5v-278h-278q-18 0 -30.5 -12.5t-12.5 -30.5t12.5 -31t30.5 -13h278v-277q0 -18 12.5 -31t30.5 -13t30.5 13t12.5 31v277h278q18 0 30.5 13t12.5 31t-12.5 30.5t-30.5 12.5z" />
    <glyph glyph-name="zhengpinbaozhang" unicode="&#xe61f;" 
d="M522.5 812q-101.5 0 -194 -39.5t-159.5 -106.5t-106.5 -159.5t-39.5 -194t39.5 -194t106.5 -159.5t159.5 -106.5t194 -39.5t194 39.5t159.5 106.5t106.5 159.5t39.5 194t-39.5 194t-106.5 159.5t-159.5 106.5t-194 39.5zM523 -136q-91 0 -174.5 35.5t-143.5 95.5
t-95.5 143t-35.5 174t35.5 174.5t95.5 143.5t143.5 95.5t174.5 35.5t174 -35.5t143 -95.5t95.5 -143.5t35.5 -174.5t-35.5 -174t-95.5 -143t-143 -95.5t-174 -35.5zM406 540q1 10 -5 18.5t-16.5 10t-19 -4.5t-10.5 -17t-7.5 -32t-35.5 -82.5t-76 -122.5q-6 -9 -4.5 -19.5
t9.5 -16.5q7 -5 16 -5q13 0 20 10q13 17 25 35v-220q0 -11 7.5 -18.5t18 -7.5t18 7.5t7.5 18.5v305q45 85 53 141zM745 384q11 0 18.5 7.5t7.5 18t-7.5 18t-18.5 7.5h-186q4 63 1 110q-1 11 -9 18t-19 6q-10 -1 -17 -9t-7 -18q3 -43 -1 -107h-86q-10 0 -17.5 -7.5t-7.5 -18
t7.5 -18t17.5 -7.5h82q-22 -192 -106 -263q-8 -7 -9 -17.5t6 -18.5q8 -9 20 -9q9 0 16 6q101 85 125 302h190v0zM754 239q-11 0 -18.5 -7.5t-7.5 -18.5v-59q0 -8 -9.5 -17t-16.5 -9h-51q-15 0 -23 8q-6 7 -6 20v185q0 11 -7.5 18.5t-17.5 7.5v0q-11 0 -18.5 -7.5t-7.5 -18.5
v-185q-1 -34 21 -56q23 -23 59 -23h51q28 0 52.5 23t24.5 54v59q0 11 -7 18.5t-18 7.5zM617 502l61 -27q5 -2 10 -2q17 0 24 16q4 10 0 19.5t-14 13.5l-61 27q-10 4 -19.5 0t-14 -13.5t-0.5 -19.5t14 -14z" />
    <glyph glyph-name="tupian1" unicode="&#xe6b9;" horiz-adv-x="1000" 
d="M125 550v-625h875v625h-875zM938 29l-126 209l-141 -119l-109 181l-375 -312v500h750zM250 331q0 39 27.5 66.5t66.5 27.5t66.5 -27.5t27.5 -66.5t-27.5 -66t-66.5 -27t-66.5 27t-27.5 66zM875 675h-875v-625h62v562h813v63z" />
    <glyph glyph-name="shandian" unicode="&#xe620;" horiz-adv-x="1000" 
d="M758 710l-276 -362l275 10l-401 -448l198 349l-284 8l265 350z" />
    <glyph glyph-name="yousanjiao" unicode="&#xe6a4;" horiz-adv-x="1000" 
d="M244 -143v898l537 -450zM244 -143z" />
    <glyph glyph-name="kuaijie" unicode="&#xe621;" 
d="M956 674q-4 -119 -50 -239q-56 -143 -161 -239q-8 -8 -7 -19q2 -12 4 -37t3 -37q10 -88 -60 -138q-39 -28 -153 -103q-25 -16 -49 -4t-27 40q-5 52 -11 133q-1 17 -3.5 20t-18.5 5q-87 12 -132 84q-22 35 -26 82q-1 11 -13 12q-83 4 -138 8q-28 2 -40 27t3 50q0 1 45 70
q6 10 22.5 36t25.5 40q45 70 126 71q12 0 93 -9q9 -1 14 5q101 113 262 171q85 31 176 41q54 5 91 -2q12 -2 15 -5t5 -15q5 -29 4 -48zM782 470q0 41 -29 71.5t-69 30.5q-43 1 -73.5 -27.5t-31.5 -74.5q-1 -40 29.5 -70.5t70.5 -30.5q42 0 72 29.5t31 71.5zM185 160
q19 0 26 -20q29 -82 104 -124q16 -9 35 -15q17 -6 20 -19.5t-9 -25.5t-36 -36.5t-36 -36.5q-13 -13 -28 -7q-17 6 -17 24q-1 4 -1 12v10q0 11 -1.5 12t-11.5 -2q-14 -5 -41 -13.5t-40 -13.5q-14 -4 -23 1q-18 10 -11 32q5 16 15.5 47.5t11.5 35.5q3 9 2 10.5t-11 1.5h-9.5
t-14.5 1q-17 1 -23 16q-6 16 6 28l75 75q8 8 18 7z" />
    <glyph glyph-name="gongwenbao" unicode="&#xe622;" 
d="M311 389v7v-3q0 12 8.5 21t20.5 9h24q11 0 20 -9t9 -21v2v-6q0 -12 3.5 -15t16.5 -3h202q11 0 13.5 2.5t2.5 13.5v4v2q0 12 8.5 21t20.5 9h23q12 0 20.5 -9t8.5 -21v1v-6q0 -11 4 -14t15 -3h111q12 0 16 4t4 15v33q0 24 -17 41.5t-41 17.5h-584q-24 0 -41 -17.5
t-17 -41.5v-31q0 -13 5 -17t18 -4h105q14 0 17.5 3t3.5 15zM712 310v-4v-2q0 -12 -8.5 -20.5t-20.5 -8.5h-23q-12 0 -20.5 8.5t-8.5 20.5v0v6q0 10 -3.5 13t-12.5 3h-202q-12 0 -16 -3.5t-4 -14.5v-7v3q0 -12 -9 -20.5t-20 -8.5h-24q-12 0 -20.5 8.5t-8.5 20.5v-4v7
q0 12 -4 15.5t-16 3.5h-107q-13 0 -17.5 -4.5t-4.5 -17.5v-296q0 -25 17 -42t41 -17h584q24 0 41 17t17 42v301q0 17 -18 17h-112q-12 0 -16 -3t-4 -13zM374 329q0 -12 -6.5 -20.5t-15.5 -8.5t-15 8.5t-6 20.5v36q0 12 6 20.5t15 8.5t15.5 -8.5t6.5 -20.5v-36zM693 329
q0 -12 -6 -20.5t-15 -8.5t-15.5 8.5t-6.5 20.5v36q0 12 6.5 20.5t15.5 8.5t15 -8.5t6 -20.5v-36zM390 513q14 39 47.5 63t75 24t74.5 -24t48 -63q0 -2 1.5 -4.5t8 -7t17 -4.5t16 4t6.5 8v4q-15 59 -62.5 97t-109 38t-109 -38t-63.5 -97q0 -1 0.5 -3.5t6 -6.5t16 -4t17.5 3.5
t9 7.5z" />
    <glyph glyph-name="gouwuche" unicode="&#xe623;" 
d="M892 240q-4 -24 -23.5 -41t-43.5 -17h-395q-24 0 -43 17t-23 41l-44 317q-3 24 11.5 38t37.5 10l507 -90q23 -4 37.5 -24t10.5 -44zM810 148h-481l-63 475q-2 10 -9.5 17.5t-16.5 7.5h-5h-115q-12 0 -20.5 -7.5t-8.5 -18t8.5 -18.5t20.5 -8h97l64 -475q1 -11 9 -18.5
t18 -6.5h2h500q12 0 20.5 7.5t8.5 18.5t-8.5 18.5t-20.5 7.5zM473 6q0 -24 -17 -40.5t-41 -16.5t-41 16.5t-17 40.5t17 40.5t41 16.5t41 -16.5t17 -40.5zM785 6q0 -24 -17 -40.5t-41 -16.5t-40.5 16.5t-16.5 40.5t16.5 40.5t40.5 16.5t41 -16.5t17 -40.5z" />
    <glyph glyph-name="tupian2" unicode="&#xe6ba;" 
d="M938 770h-852q-34 0 -57.5 -22t-23.5 -56v-782q0 -34 24 -58t57 -24h859q33 0 55.5 24t22.5 58v782q0 33 -25.5 55.5t-59.5 22.5zM332.5 654q51.5 0 88.5 -36.5t37 -88t-37 -88t-88.5 -36.5t-88 36.5t-36.5 88t36.5 88t88 36.5zM120 -73q-16 0 -27 10q-13 11 -14 27.5
t10 29.5l187 282q10 12 26 14t29 -8l165 -122l295 336q7 8 15.5 16.5t24.5 19.5t31 14t32 -7t29 -37v-18.5v-61.5v-75.5v-95.5v-309v-9v-2v-2v-1v-1h-802h-1z" />
    <glyph glyph-name="duban" unicode="&#xe624;" 
d="M356 628l227 -131q13 -8 28 -4t23 17.5t4 28.5t-18 23l-227 131q-13 8 -28 4t-23 -17.5t-4 -28.5t18 -23zM149 271l228 -131q13 -8 28 -4t23 17.5t4 28.5t-18 23l-227 131q-14 8 -29 4t-22.5 -17.5t-3.5 -28.5t17 -23zM932 165l-415 218l-29 -51l76 133l-227 131
l-131 -227l227 -132l47 81l396 -250q20 -12 42.5 -6t34.5 26.5t6 43t-27 33.5zM521 -24q0 16 -11 27t-27 11h-337q-16 0 -27 -11t-11 -27v-37h-38l1 -38h487l2 36l-37 2v0q-2 17 -2 37z" />
    <glyph glyph-name="jianqie1" unicode="&#xe625;" 
d="M1001 175v-125h-125v-188h-125v188h-501q-26 0 -44 18t-18 44v438h-188v125h188v125h125v-125h500q26 0 44.5 -18t18.5 -44v-438h125zM751 550h-438v-375h438v375zM688 237h-312v251h312v-251z" />
    <glyph glyph-name="laba" unicode="&#xe626;" 
d="M59 498q0 26 18.5 44t44.5 18h63v-281h-63q-26 0 -44.5 18t-18.5 44v157v0zM759 756q43 41 78 45t62 -18.5t46 -66t31 -97t18 -112t6 -111.5t-7.5 -106t-22 -99.5t-34 -81.5t-43.5 -52t-51.5 -12t-57.5 39q-29 34 -78.5 56.5t-108 38t-118.5 25t-110 17t-83.5 14.5
t-37.5 17v313q4 14 31.5 23t70 17t96 17.5t109 26t108.5 42t96 65.5v0zM399 143q5 -12 12 -26q6 -13 16 -30t24 -37q17 -24 34.5 -50.5t26.5 -48t5.5 -35.5t-28.5 -14h-57q-20 0 -37 7.5t-32.5 23t-32 39.5t-35.5 57q-23 38 -32 66.5t-12 47.5q-4 22 0 38q8 -1 19 -4
q9 -2 22 -5t30 -6q17 -4 30.5 -7.5t24.5 -7.5q12 -4 22 -8v0z" />
    <glyph glyph-name="exit-door" unicode="&#xe627;" 
d="M640 224v0v-166q0 -11 -7.5 -18.5t-18.5 -7.5h-230v539q0 37 -36 55q-218 110 -220 110h486q11 0 18.5 -7.5t7.5 -18.5v-230h64v282q0 16 -11 27t-27 11h-628q-16 0 -27 -11t-11 -27v-756q0 -23 21 -34v0q3 -2 71 -38.5t146.5 -79.5t116.5 -63q14 -6 21.5 -1.5t7.5 13.5
v165h282q16 0 27 11.5t11 26.5v218h-64zM960 352l-192 192v-128h-320v-128h320v-128z" />
    <glyph glyph-name="bijiaNF" unicode="&#xe628;" 
d="M455 413h-1v1v0h-1v1v0l-1 1v0h-1v1h-1v1l-1 1h-1v1h-1v1l-1 1h-1v1l-1 1l-1 1h-1v1l-1 1l-1 1h-1l-1 1v1l-1 1l-1 1l-1 1h-1l-1 1l-1 1v1l-1 1l-1 1l-1 1l-1 1l-1 1l-1 1l-1 1l-1 1l-1 1l-1 1l-1 1l-1 1l-1 1l-1 1l-1 1l-1 1l-1 1l-1 1l-1 1l-1 1l-1 1l-1 1l-1 1l-1 1
l-2 1l-1 1l-1 1l-1 1l-1 1l-1 2l-1 1l-1 1l-1 1l-1 1l-1 1l-1 1l-2 1l-1 1l-1 1l-1 1l-1 2l-1 1l-1 1l-1 1l-1 1l-1 1l-1 1l-2 1l-1 1l-1 1l-1 1l-1 2l-1 1l-1 1l-1 1l-1 1l-1 1l-1 1l-1 1l-1 1l-1 1l-2 2l-2 1l-1 2l-1 1l-2 1l-1 2l-2 1l-1 2l-1 1l-2 1l-1 1l-1 2l-2 1
q-15 15 0 30t30 0q6 -5 106 -105q15 -15 0 -30q-7 -6 -15.5 -6t-14.5 6zM540 413q-6 6 -6.5 14.5t6.5 15.5l27 27l49.5 49.5l28.5 28.5q15 15 30 0t0 -30l-105 -105q-15 -15 -30 0zM299 321q-9 0 -15 6.5t-6 14.5t6.5 15t14.5 7h448q9 0 15 -6.5t6 -15.5q0 -7 -6 -14t-15 -7
h-213v-128h213q9 0 15 -6.5t6 -14.5q0 -9 -6 -15.5t-15 -6.5h-213v-171q0 -9 -6.5 -15t-15.5 -6t-15 5.5t-6 15.5v171h-192q-9 0 -15 6.5t-6 15t6 15t15 6.5h192v128h-192zM512 -213q-167 0 -302 100l30 30q123 -87 272 -87q96 0 183 37t150 100t100 150t37 182.5t-37 182.5
t-100 150t-150 100t-182.5 37t-182.5 -37t-150 -100t-100 -150t-37 -182q0 -142 78 -260l-31 -31q-90 131 -90 291q0 104 40.5 199t109 163.5t163.5 109t199.5 40.5t199 -40.5t163.5 -109t109.5 -163.5t40.5 -199.5t-40.5 -199t-109.5 -163.5t-163.5 -109.5t-199.5 -40.5z
" />
    <glyph glyph-name="chakan" unicode="&#xe629;" 
d="M512 605q-62 0 -120.5 -16.5t-103 -43.5t-84 -60t-66.5 -65t-46.5 -59.5t-29 -43.5t-9.5 -17q3 -7 8 -18t23.5 -42.5t41.5 -60.5t62 -64.5t83.5 -60.5t108 -42.5t132.5 -17.5q63 0 122.5 17t104 43.5t84 59.5t66 65t46 59.5t28 43.5l8.5 16q-3 7 -9 18t-27.5 43t-46.5 61
t-65.5 64.5t-84.5 61t-103.5 42.5t-122.5 17zM513 109q-83 0 -137 54.5t-54 136t54 136.5t137 55t137 -55t54 -136.5t-54 -136t-137 -54.5zM513 414q-47 0 -81 -34t-34 -80.5t34 -80.5t81 -34t81 34t34 80.5t-34 80.5t-81 34z" />
    <glyph glyph-name="gouwuche1" unicode="&#xe62a;" 
d="M891 601q26 0 40 -7.5t20 -18.5q5 -10 5 -23t-3 -21l-11 -37q-6 -19 -20 -61q-12 -37 -21 -67q-11 -34 -16 -51q-12 -40 -30 -56q-18 -15 -45 -15h-31h-59h-77h-84h-226l14 -90h458q43 0 43 -41q0 -19 -8 -34q-9 -14 -34 -14h-44h-84h-105h-106h-87h-50q-18 0 -31 9
q-12 8 -20 23q-8 14 -13 31q-5 16 -8 32q-1 8 -5 29l-10 57l-13 77l-15 85q-15 93 -39 224h-68q-13 0 -22.5 7.5t-15.5 18t-8 22.5t-2 22q0 20 12.5 33t32.5 13h20h19h22h31q18 0 29 -6t17 -15q7 -9 10 -19l4 -17q2 -9 4 -22l3 -30q2 -10 6 -38h621zM738.5 36
q17.5 0 33.5 -7t27 -20q11 -12 18 -29t7 -36t-7 -36q-7 -16 -18 -29q-11 -12 -27 -19.5t-33.5 -7.5t-33 7.5t-27 20t-17.5 28.5q-7 17 -7 36t7 36q6 17 18 29.5t27 19.5t32.5 7zM361 38q17 0 32.5 -7t27 -19.5t18 -29.5t6.5 -36t-6.5 -36t-18 -29t-27.5 -20q-15 -7 -32 -7
q-18 0 -33.5 7.5t-26.5 19.5q-12 13 -18 29q-7 17 -7 36t7 36q6 17 18 29q11 13 26 20q16 7 34 7v0z" />
    <glyph glyph-name="youhuiquan" unicode="&#xe6a9;" 
d="M5 455q0 30 10 43t44 13h142v-563h-61h-48q-32 1 -33 1q-30 -1 -42 10t-12 43v162q0 12 4 18.5t16 8.5q4 0 12 4q8 3 16 10q8 8 13 20q5 11 5 28q0 26 -13 41q-14 15 -30 17q-12 2 -17.5 7t-5.5 18v119v0zM97 562v14v1v1v13q0 23 17 42t37 19h152v-90h-206v0zM997 317
q-9 -2 -12 -9q-4 -8 -4 -16q0 -9 4 -18q4 -8 12 -12q9 -3 14 -13q5 -11 6 -22q0 -11 -3 -21t-10 -15q-22 -13 -22 -30q0 -18 22 -34q4 -3 8 -12q4 -10 4 -19t-4 -15q-5 -7 -16 -7h-59q-7 0 -7.5 1t1.5 4t6 6q3 3 5 8q6 16 0 27q-5 12 -19 19q-9 5 -12 15q-4 9 -3 19
q0 11 3.5 18.5t9.5 11.5q9 3 13 12q5 9 5 19t-3 19q-4 8 -10 12q-9 4 -14 13t-5 20.5t4 21.5q5 11 15 18q6 4 11 12q4 7 5 17q0 8 -4 17q-3 9 -14 15q-11 5 -16 16t-5 22t5 21q5 11 14 16q19 10 21 28q1 17 -3 32q-4 11 -13 20q-10 9 -26 9h-530v89h622q8 0 13 -5
q6 -6 7.5 -14t-1.5 -16q-2 -9 -10 -14q-7 -6 -12 -15q-4 -8 -5 -19q-1 -9 2 -19q4 -9 13 -14q12 -7 18 -18.5t6 -23.5t-6 -22t-17 -15q-13 -5 -18 -13t-6 -18t4 -20t16 -16q12 -7 16 -18q5 -11 5 -23q-1 -11 -6 -21q-5 -9 -15 -11v0zM854 334q-13 -3 -21 -12q-7 -10 -7 -20
q-1 -10 5 -21q7 -10 18 -14q12 -5 17 -14t6 -19t-3.5 -19t-13.5 -14q-28 -14 -29 -32q-1 -19 21 -31q10 -5 16 -14t7 -20q0 -11 -4 -19q-4 -9 -14 -12q-14 -4 -21 -13t-7.5 -19t5.5 -20t19 -17q9 -4 13 -14t3 -19q-2 -9 -6 -16q-5 -7 -14 -7h-578v563h584q9 0 14 -7t6 -16
q0 -9 -4 -18q-5 -9 -14.5 -12.5t-16.5 -11.5q-5 -8 -7 -17q-1 -10 5 -19q5 -9 19 -14q10 -4 16 -13q6 -10 6 -19q1 -9 -4 -18q-5 -8 -16 -12v0zM587 259q-5 0 -11 1t-3 7q7 11 11 15q10 15 21 29q2 4 9.5 14t11.5 15q11 15 12 17q6 9 -6 21q-2 2 -9 7t-12 7q-9 3 -13 1
q-4 -3 -9 -10q-8 -11 -12 -16q-2 -5 -18 -28q-8 -12 -19 -27q-8 -12 -9 -14q-2 -4 -8 -3t-8 6q-3 3 -10 13q-10 11 -19 24q-6 8 -20 25q-8 11 -12 17q-10 19 -21 12q-8 -4 -14 -10q-6 -5 -12 -8q-11 -8 -3 -20q20 -24 33 -42q16 -21 23 -31q11 -13 14 -17q2 -4 -5 -4h-13
q-7 0 -16 -1q-11 0 -20 1q-9 0 -14 -4.5t-3 -11.5q1 -5 1 -13v-14q0 -6 3 -6.5t8 -0.5h64q13 0 13 -5v-22q0 -5 -2 -5h-5h-12h-22h-22h-13q-6 1 -9 -4q-2 -4 -3 -10t0 -10q1 -5 1 -9q0 -15 14 -15h67q5 0 6 -1q2 -2 2 -8q1 -6 0 -20q-1 -18 -1 -19q0 -13 15 -13h35q9 0 9 6
v8v37q0 12 10 12h10h17q13 1 18 1h15q15 0 15 11v25q0 10 -11 10h-64q-11 -2 -11 4q0 4 -1 9v9t4 7t8 2h65q11 0 11 8v27q0 5 -3.5 9.5t-9.5 4.5h-38v0zM587 259z" />
    <glyph glyph-name="kefu" unicode="&#xe6a0;" 
d="M510 673q-117 0 -199.5 -81t-82.5 -195.5t82.5 -195.5t199.5 -81t200 81t83 195.5t-83 195.5t-200 81zM184 291v255q-5 0 -10 -1q44 96 134.5 155t201.5 59t202 -59t135 -155q-5 1 -11 1v-255q54 0 92.5 37t38.5 90q0 36 -18 65.5t-49 46.5q-43 120 -149.5 195.5
t-240 75.5t-240.5 -75.5t-149 -195.5q-31 -17 -49 -46.5t-18 -65.5q0 -53 38 -90t92 -37zM792 144q-56 -51 -128.5 -79.5t-153 -28.5t-153 28t-128.5 80q-102 -52 -160.5 -140.5t-58.5 -205.5h1004q0 118 -59 206.5t-163 139.5z" />
    <glyph glyph-name="diqiu" unicode="&#xe62b;" 
d="M512.5 735q-90.5 0 -173.5 -34.5t-142.5 -93t-95 -139t-35.5 -169t35.5 -169t95 -138.5t142.5 -92.5t173.5 -34.5t173 34.5t142.5 92.5t95.5 138.5t35.5 169t-35.5 169t-95.5 139t-142.5 93t-173 34.5zM705 255q5 1 14 3q0 -8 -2 -12q-2 0 -6 -1t-6 -1q-6 2 -14 10
t-12 10l1 3q6 2 6 3q13 -13 19 -15zM686 342q-2 0 -3 4q3 -1 3 -4zM682 346v-2q-1 -1 -1 0.5t1 1.5zM690 323q0 -1 -0.5 -2.5t-1.5 -2.5t-5 -1t-5 -1q-9 10 -10 12q0 2 1 3.5t1 2.5q-1 2 -6.5 8t-7.5 11t-1 11q0 1 3 4l5 5q1 0 2 -1t2 -1q2 3 2 4q1 0 1 -0.5t1 -0.5
q-6 -12 -7 -13q4 -13 15 -18q11 -19 11 -20zM622 208q-9 -1 -15 10q-1 2 -2 3t-3 4.5t-3.5 6t-1.5 3.5q0 3 2 4t5.5 -0.5t5.5 -2.5t4 -3q3 -11 8 -18.5t15.5 -16.5t13.5 -12q1 -3 3 -9.5t3 -9.5q-6 1 -10 1q-4 6 -5 8q-10 3 -15.5 10.5t-0.5 16.5q0 2 -4 5zM596 78q3 1 5 0
q-1 -9 -10 -8l-1 5q1 1 3 1h2.5t0.5 1v1zM591 336l9 7q-1 0 -6 -0.5t-6 1.5q3 6 15 15q3 -2 3 -4t-1.5 -5.5l-1.5 -3.5q1 -2 5 -2t5 -1q3 -1 8 -5t5 -5q0 -5 -9 -6q-3 -1 -13 -0.5t-11.5 0.5t-4 -1t-3.5 -1q-23 -7 -25 -8q-1 1 1 3q1 1 1 2q0 4 0.5 12t-0.5 11q1 0 3.5 3
t4.5 3q3 0 7.5 -3.5t6.5 -3.5q1 -1 -0.5 -2.5t-1.5 -3.5q1 -1 4.5 -1.5t4.5 -0.5zM229 531q-2 -4 -6 -6zM217 515l1 -1l-0.5 -1l-0.5 -1h1q-2 -2 -3 -2q0 1 2 5zM879 252q-2 -4 -1 -9q-21 -130 -124.5 -217t-241.5 -87q-88 0 -165.5 38.5t-128.5 104.5q-2 2 -3.5 8.5
t-1.5 7.5q-3 6 -3 9.5t6 5.5q-2 12 -12 30q-2 2 -5.5 9.5t-6.5 10.5q-1 2 -5.5 6t-6.5 6q-3 4 -6 12.5t-4 10.5q-1 1 -2.5 3.5t-2.5 3.5q-1 4 -2 11.5t-2 10.5q-3 13 -6 21q-1 1 -4 6t-3 7v3.5v3.5q0 29 -5 55q1 23 6 46v-1.5v-1.5q4 13 4 23q12 43 34 83q4 2 9.5 9t7.5 9
q0 -4 2 -8q1 5 6 5.5t9 -2.5l-3 -3t-2 -4q2 0 7 -4q5 15 14 24q2 10 4 11q1 -2 2 -8t3 -7q0 -2 2 -1l2 1q-1 -3 -6.5 -6t-6.5 -5q-2 -20 3 -23q9 15 8 21q6 12 15 18q1 3 3.5 8t2.5 6l5 10q2 4 6.5 9.5t6.5 8.5h-4h-4q0 6 8.5 13t10.5 9q0 1 1 1q4 7 1 13q-3 -2 -8 -5t-7 -4
t-7 -5.5t-7 -5.5q-1 0 -3.5 0.5t-3.5 -0.5q-3 0 -7 -3.5t-7 -4.5q2 5 9.5 9.5t8.5 4.5q2 2 4.5 6t3.5 5t4 4.5t4 4.5q16 12 32 22h0.5h0.5q-1 -2 3 -5q-8 -1 -11 -8h1h1q0 -1 -1.5 -2.5t-1.5 -2.5q3 2 9 7.5t11 6.5v-4q3 -1 7 1t7 1q-1 -1 -8 -10.5t-17 -9.5q-1 1 -2 3t-2 3
q0 -1 -2 -1t-2 -1q0 -4 -1.5 -7t-4.5 -7t-4 -5h-0.5t-0.5 -0.5v-0.5q-2 -4 -2 -8q7 -2 13 4.5t8 7.5q0 -2 -1 -4t-1 -3v-4q3 2 8 3q3 2 5 6.5t2 5.5q2 3 7.5 7t7.5 7q1 1 -0.5 1t-0.5 1q6 6 14 11q1 3 4 7.5t4 5.5q-1 0 -3 -0.5t-3 0.5q7 3 8 7q-19 -1 -26 -14q-3 0 -5 2
q5 6 26 17q-4 0 -10 -3t-9 -2q1 1 6.5 2t5.5 4q0 2 -1 2q20 9 41 16l-1 -1q2 1 6.5 1.5t5.5 2.5v0q51 15 105 15q75 0 143 -28h1q0 -1 7 -5.5t9 -8.5l-2 -2t-2 -3t4 -11q-1 -1 -3 -1q1 -2 3 -4.5t2 -5.5q-3 0 -7.5 4.5t-6.5 4.5q-6 1 -8 -7q1 -1 3.5 -4t3.5 -6l-8 -8
q3 -4 4 -13t3 -13h-2q1 -2 4 -2.5t4 -1.5q-1 0 -5 -4t-10 -4q1 -1 4 -4.5t3 -5.5l-9 6t-8 4q0 -4 1.5 -8t5 -8t4.5 -7q-6 -4 -13 -1q-7 -3 -8 -9q-2 -1 -6 -4t-7 -4q-2 -2 -7.5 -5.5t-7.5 -5.5q-1 0 -3.5 1t-4 1h-2.5q0 -2 2 -5.5t2 -5.5q-4 1 -7 -2t-5 -3q-1 -3 -4.5 -5.5
t-3.5 -4.5q-11 3 -13 9q2 0 1 1t0 2q17 -3 22 5q-1 1 -2.5 3.5t-3.5 3.5h-3.5h-3.5q-23 5 -25 5q-5 6 -21 3q-11 -2 -16 -11q-5 0 -10.5 -6t-10.5 -6q-4 -12 -26 -18q-7 -11 -5 -22q5 -2 16 -4q1 -2 5 -9t6 -11h10l4.5 3.5t6 5t3 5t0.5 7.5h3q-6 11 -6 15q1 3 11 12
q7 8 11 9q0 -6 -11 -18q2 -9 12 -14q1 -8 -1 -13q-3 1 -4.5 0t-2.5 -3l-1.5 -3t-1 -4.5l-0.5 -3.5q-4 0 -11.5 -3t-10.5 -4q-1 0 -4 1t-4 1q-15 2 -16 4q0 3 5 4q-1 1 -3.5 5.5t-2.5 7.5q-3 -2 -5 -10t-4 -10l-5 1q-3 -2 -8.5 -3.5t-7.5 -2.5q-3 -1 -9 -8t-12 -8
q-4 -1 -7 -0.5t-6.5 -0.5t-6.5 -3q6 -20 6 -21q-2 -6 -8 -7t-16.5 1t-12.5 2q-7 -11 -11 -16q0 -12 -1 -20q4 0 10 -5.5t9 -5.5q5 -1 14 2q1 0 4.5 0.5t4.5 0.5q5 3 11 15q2 1 5 2t5 3q1 1 4 5t5 4q1 1 5.5 0.5l4.5 -0.5q2 0 17 3q1 -3 11 -11q1 -2 4 -5t5 -4l6 -2.5t8 -5.5
q1 -3 1 -7.5t1 -6.5q1 0 2 1t2 1q0 1 0.5 4t1 5t1.5 3q2 0 2.5 -1t2.5 -1q1 3 -1.5 6t-6.5 4q-2 4 -17 12q0 1 -1 4.5t-1 5.5q1 0 4.5 -0.5t5 -1t4 -3.5t3.5 -4l6 -3t7 -4t4 -5q-1 -1 -2 -2.5t-1 -3.5q0 -3 5 -6.5t6 -4.5q1 -2 2.5 -7.5t3.5 -8.5q0 1 7 -1q2 2 7 1
q1 3 -1.5 4t-2.5 3h2.5t1.5 1q-4 3 -6 14q1 5 10.5 5t13.5 3q-5 -5 -5 -14q3 -2 9 -15q5 1 20.5 0.5t18.5 2.5q6 -11 -6 -31q-3 1 -5 2q-2 -2 -4.5 -2.5t-4.5 0t-5 -0.5q-1 0 -4 -1.5t-5 -1.5q-8 0 -22.5 5t-20.5 5q-1 -1 -4 -2t-4 -2q-2 -9 -5 -12q-3 3 -8 4t-6 2
q-3 1 -8 5.5t-8 5.5t-6 0.5t-5.5 0t-4.5 3.5q-1 2 -1 6t-1 6q0 2 -2.5 6t-3.5 7q-2 0 -5.5 -0.5t-5.5 -0.5q-4 0 -11.5 1.5t-10.5 2.5q-12 1 -25 -1q-2 -1 -5.5 -2.5t-5.5 -1t-5.5 4t-6.5 3.5q-2 0 -5.5 -4t-5 -5t-4.5 -1t-4 -0.5l-4 -2t-4 -1.5t-0.5 -1t0.5 -2
q-8 -12 -11.5 -14t-10.5 -4.5t-10 -4.5q-15 -8 -19 -26q-1 -3 -2.5 -11t-2.5 -13q-5 -2 -2.5 -14.5t0.5 -17.5q3 -4 8 -9t7 -9q1 -2 1.5 -6.5t1.5 -7.5t10 -12q10 -11 12 -12q4 -2 9.5 -3t12 -1.5t10.5 -1.5l22 -4q2 0 8 1t9 1q2 0 6 -2.5t6 -2.5q6 -9 26 -9q6 -5 8 -8
q-8 -11 -9 -20q8 -8 21 -24t15 -18q-5 -7 -4 -14q-1 0 -3.5 -1.5t-3 -3.5t-1 -7.5t-1.5 -8.5q2 -3 8 -8t8 -8q1 -2 2 -5.5t2 -4.5q5 -7 21 -16q1 0 1 -1.5v-2.5q14 -5 48 2q29 6 38 18v2.5v1.5q5 5 12 10q0 3 3 11q2 1 16.5 9.5t19.5 15.5q-1 4 -2 19.5t-3 21.5q2 3 6.5 9
t7.5 9q2 1 5.5 2.5t4.5 3.5q3 2 10 11t12 13q12 10 14 14q1 2 1.5 6t1.5 6q0 1 5 11q0 2 2.5 6t2.5 5t-1 6q-6 1 -9 1q-3 -1 -11.5 -6t-13 -6.5t-11.5 1.5v5q8 2 24 14q3 1 10.5 5.5t10.5 7.5q1 1 4 6t6 6q2 1 7 3t8 4t5 6q0 10 8 31q-2 1 -4 4.5t-4 4.5q-1 1 -3.5 2
t-4.5 2.5t-2 4.5q9 5 22 1q10 12 21 15l2 -3q5 0 9 -2.5t7.5 -5.5t6.5 -4q1 0 2.5 2t2.5 2q6 -4 9 -27q1 -2 3 -3.5t3 -3.5q0 -1 0.5 -3.5t-0.5 -4.5q8 -8 8 -11q7 -2 7 -4q8 23 8 35q0 3 -1 7.5t-1 7.5q0 4 1.5 8t4 10t3.5 9q1 2 1 6v6q1 1 2 4t1 5q1 7 6 19q5 -1 7.5 -3
t5 -7l3.5 -7q6 7 8 -7v-10v-7q1 -5 3 -10q-1 -11 -3 -21zM883 303v-1.5v-1.5q0 -2 -1 -13q-1 9 1 16z" />
    <glyph glyph-name="zaixiankefu" unicode="&#xe6a1;" 
d="M511 -153l-170 294q-185 -74 -249 -118q-18 -12 -34 -35t-26 -46.5t-17.5 -46t-11 -36t-3.5 -14.5h1024q-1 5 -2.5 14t-9 33.5t-17 46t-27 45.5t-38.5 39q-29 20 -91 49t-110 49l-48 20l-170 -294v0v0zM511 82l-57 -59l29 -59l-85 -117h227l-85 117l28 59l-57 59v0v0z
M517 755q41 0 74.5 -7.5t58 -18.5t43.5 -29.5t31.5 -35.5t21 -42.5t13 -44t6.5 -46.5t2.5 -42.5t0.5 -39.5q0 -43 -18.5 -96.5t-50 -103t-80 -83t-102 -33.5t-102.5 33.5t-80 83t-49.5 103t-18.5 96.5v39.5t2.5 42.5t6.5 46.5t13 44t21 42.5t31 36t43.5 29.5t58.5 18t74 7.5
v0v0zM808 378h-38v175l78 -95zM186 458l78 95v-175h-38zM798 377q-1 -7 -4 -19t-15 -46t-27.5 -63t-43.5 -61.5t-62 -51.5q-36 -20 2 24l46 48q7 7 18 21t34 58t34 90q13 62 17 34q1 -8 1 -34v0zM798 377z" />
    <glyph glyph-name="weixin" unicode="&#xe6eb;" 
d="M580 300q-9 0 -16 -7t-7 -17q0 -8 7 -15t16 -7q13 0 21.5 6.5t8.5 15.5q0 10 -8.5 17t-21.5 7v0zM503 413q14 0 22 8t8 21t-8 21t-22 8t-24 -8t-10 -21t10 -21t24 -8v0zM512 811q-104 0 -198.5 -40.5t-163 -109t-109 -163t-40.5 -198.5t40.5 -199t109 -163.5t163 -109
t198.5 -40.5t199 40.5t163.5 109t109 163.5t40.5 199t-40.5 198.5t-109 163t-163.5 109t-199 40.5v0zM416 170q-36 0 -83 13l-84 -42l24 72q-94 66 -94 158q0 84 69 142t168 58q87 0 154.5 -46.5t82.5 -118.5q-12 2 -22 2q-85 0 -143 -55t-58 -132q0 -23 6 -50q-6 -1 -20 -1
v0zM763 88l17 -60l-63 36q-5 -1 -22 -5t-28 -5.5t-22 -1.5q-84 0 -142 50t-58 121.5t58 121.5t142 50q80 0 140.5 -50.5t60.5 -121.5q0 -74 -83 -135v0zM338 471q-14 0 -25 -8t-11 -21t11 -21t25 -8q13 0 21.5 8t8.5 21t-8.5 21t-21.5 8v0zM711 300q-10 0 -17 -7t-7 -17
q0 -8 7.5 -15t16.5 -7q12 0 20.5 6.5t8.5 15.5q0 10 -8.5 17t-20.5 7v0zM711 300z" />
    <glyph glyph-name="liebiao" unicode="&#xe62c;" 
d="M891 64h-508q-14 0 -24 -10t-10 -24.5t10 -24.5t24 -10h508q14 0 24.5 10t10.5 24.5t-10.5 24.5t-24.5 10zM891 334h-508q-14 0 -24 -10t-10 -24.5t10 -24.5t24 -10h508q14 0 24.5 10t10.5 24.5t-10.5 24.5t-24.5 10zM383 535h508q14 0 24.5 10t10.5 24.5t-10.5 25
t-24.5 10.5h-508q-14 0 -24 -10.5t-10 -25t10 -24.5t24 -10zM220 648h-86q-15 0 -25 -10t-10 -25v-86q0 -15 10 -25t25 -10h86q14 0 24.5 10t10.5 25v86q0 15 -10.5 25t-24.5 10zM220 378h-86q-15 0 -25 -10.5t-10 -24.5v-87q0 -14 10 -24t25 -10h86q14 0 24.5 10t10.5 24
v87q0 14 -10.5 24.5t-24.5 10.5zM220 107h-86q-15 0 -25 -10t-10 -24v-87q0 -14 10 -24.5t25 -10.5h86q14 0 24.5 10.5t10.5 24.5v87q0 14 -10.5 24t-24.5 10z" />
    <glyph glyph-name="sousuo" unicode="&#xe62d;" 
d="M1013 -100l-198 198q84 118 84 263q0 91 -35.5 174.5t-95.5 143.5t-143.5 95.5t-174.5 35.5t-174.5 -35.5t-143.5 -95.5t-95.5 -143.5t-35.5 -174.5t35.5 -174.5t95.5 -143.5t143.5 -95.5t174.5 -35.5q145 0 263 84l198 -198q11 -11 26 -11t25 11l51 51q11 10 11 25
t-11 26zM129 361q0 87 43 161t117 117t161 43t161 -43t117 -117t43 -161t-43 -161t-117 -117t-161 -43t-161 43t-117 117t-43 161z" />
    <glyph glyph-name="shouye" unicode="&#xe6e8;" 
d="M961 409l-194 148v124q0 14 -7 14h-59q-7 0 -7 -14v-69l-129 98q-22 22 -53 22t-54 -22l-396 -301q-9 -7 -10.5 -18.5t5.5 -20.5q8 -11 22 -11q9 0 17 6l56 43v-464q0 -32 24 -54t57 -22h562q34 0 58 22t24 54v460l51 -39q9 -7 20.5 -5.5t18 10.5t5 20.5t-10.5 18.5z
M606 -77h-176v196q0 7 5 7h167q4 0 4 -7v-196zM821 -56q0 -9 -7.5 -15t-18.5 -6h-165v196q0 13 -8 22t-20 9h-167q-12 0 -20 -9t-8 -22v-196h-174q-10 0 -18 6t-8 15v506l286 218q1 1 3 2q6 7 15.5 7t16.5 -7q1 -1 3 -2l290 -222v-502z" />
    <glyph glyph-name="series16" unicode="&#xe62e;" 
d="M512 -197q-102 0 -195 40t-160 107t-107 160t-40 195t40 195t107 160t160 107t195 40t195 -40t160 -107t107 -160t40 -195t-40 -195t-107 -160t-160 -107t-195 -40zM512 779q-96 0 -184 -38t-151 -101t-101 -151t-38 -184t38 -184t101 -151.5t151 -101t184 -37.5
t184 37.5t151.5 101t101 151.5t37.5 184t-37.5 184t-101 151t-151.5 101t-184 38zM646 404q-61 0 -130 25q-66 -25 -129 -25q-59 0 -138 18q0 -231 125 -336q39 -32 80.5 -59t61.5 -27t62 27t81 60q125 105 125 335q-80 -18 -138 -18zM585 144l-68 42l-69 -42l23 75l-58 55
h76l28 70l28 -70h75l-58 -55zM387 427q63 0 125 24l4 2l4 -1q4 -2 19 -7t47.5 -11.5t59.5 -6.5q57 0 138 18q-1 24 -4.5 45.5t-5.5 31.5l-3 9q-74 -19 -133 -19q-27 0 -57.5 6.5t-47.5 12.5l-17 6q-59 -25 -120 -25q-27 0 -60.5 5t-53.5 9l-20 5q-10 -33 -13 -86
q79 -18 138 -18z" />
    <glyph glyph-name="f10" unicode="&#xe696;" 
d="M423 200v207q0 8 6 14t15 6q7 0 13 -5l136 -102q7 -5 8.5 -13.5t-4.5 -15.5q-1 -2 -4 -4l-137 -103q-7 -5 -15.5 -4t-13.5 8q-4 6 -4 12v0z" />
    <glyph glyph-name="erweima" unicode="&#xe6b6;" 
d="M152 688h305q9 0 14.5 -6t7.5 -18.5t2.5 -20.5t0 -25.5t-0.5 -22.5v-169q0 -6 0.5 -21.5t0 -24t-1.5 -19.5t-5.5 -17.5t-11.5 -9.5t-21 -3.5t-33.5 0.5t-23.5 1h-162q-6 0 -23 -0.5t-25.5 -0.5t-20.5 2t-18 7.5t-7 15.5v309q6 18 23 23zM194 619v-220h220v223h-219
q-1 0 -1 -3zM562 688h305q20 -7 23 -27v-301q-5 -22 -21 -27q-9 -2 -22 -2.5t-30.5 0.5t-24.5 1h-157q-7 0 -24.5 -1t-31 -1t-21.5 3t-12.5 9.5t-6.5 19t-2 21.5t0.5 25.5t0.5 22.5v158q0 8 -0.5 25.5t-0.5 27t2 21.5t7.5 18t15.5 7zM604 619v-220h220v223h-219q-2 0 -1 -3z
M294 554q23 5 39 -8t17 -35q0 -27 -22 -40t-45 -2q-16 9 -21.5 28t3.5 36.5t29 20.5zM704 554q39 8 51 -26q10 -30 -10 -51q-16 -16 -41 -12q-22 4 -30.5 24t0 40.5t30.5 24.5zM455 -84h-302q-19 6 -24 25v308q6 19 20 23q9 2 22 2.5t30.5 -0.5t24.5 -1h156q7 0 24.5 1
t31 0.5t22.5 -2.5q8 -3 13 -9.5t6.5 -18.5t2 -21t0 -25.5t-0.5 -23.5v-162q0 -6 0.5 -24.5t0 -26.5t-2.5 -20t-8 -18t-16 -7zM194 203v-220h220v223h-219q-1 0 -1 -3zM890 245v-86q-1 -7 -0.5 -46t-0.5 -47h-218v50q-5 2 -33 1.5t-34 -0.5q-2 -17 -1.5 -99.5t0.5 -101.5h-40
q-10 2 -16 8.5t-8 18.5t-2 21.5t0.5 27t0.5 24.5v158q0 7 -1 25.5t-0.5 32t2.5 21.5q2 5 4.5 8.5t7 5.5t8 3.5t11 2t11.5 0.5h13.5h12.5h148v-136h69q0 12 -0.5 68.5t1.5 67.5q17 0 31 -0.5t23.5 -7t10.5 -20.5zM300 140q25 2 40.5 -17.5t6.5 -45.5q-9 -23 -33.5 -27
t-42.5 12.5t-10.5 45t39.5 32.5zM745 -84h-74v41t1 39h73v-80zM890 -4v-52q-4 -21 -24 -28h-52q0 8 -0.5 41t1.5 39h75z" />
    <glyph glyph-name="shezhi" unicode="&#xe62f;" 
d="M915 396h-79q-1 3 -12 31t-19 42l55 54q14 13 14 31.5t-13 31.5l-64 63q-13 13 -31.5 13t-32.5 -13l-52 -56q-14 8 -42 19t-31 12v79q0 18 -16 31.5t-35 13.5h-90q-19 0 -35 -13.5t-16 -31.5v-79q-3 -1 -31 -12t-42 -19l-54 56q-13 13 -31.5 13t-31.5 -13l-63 -64
q-13 -13 -13 -31.5t13 -31.5l56 -53q-8 -14 -19 -42t-12 -31h-79q-18 0 -31.5 -16t-13.5 -35v-90q0 -19 13.5 -35t31.5 -16h79q1 -3 12 -31t19 -42l-56 -54q-13 -13 -13 -31.5t13 -31.5l64 -63q13 -13 31.5 -13t31.5 13l53 56q14 -8 42 -19t31 -12v-79q0 -18 16 -31.5
t35 -13.5h90q19 0 35 13.5t16 31.5v79q3 1 31 12t42 19l54 -55q13 -14 31.5 -14t31.5 13l63 64q13 13 13 31.5t-13 32.5l-56 52q8 14 19 42t12 31h79q18 0 31.5 16t13.5 35v90q0 19 -13.5 35t-31.5 16zM512 98q-84 0 -143 59t-59 143t59 143t143 59t143 -59t59 -143
t-59 -143t-143 -59z" />
    <glyph glyph-name="jiajian01" unicode="&#xe68f;" 
d="M892 265h-738q-18 0 -30.5 12.5t-12.5 30.5t12.5 30.5t30.5 12.5h738q18 0 30.5 -12.5t12.5 -30.5t-12.5 -30.5t-30.5 -12.5z" />
    <glyph glyph-name="shiwaichangdi" unicode="&#xe630;" 
d="M365 671l-192 -222h83l-139 -170h96l-152 -168l238 8v-118h-235v-64h747v64h-384v107h234l-138 171h96l-156 170h113z" />
    <glyph glyph-name="shijian" unicode="&#xe6bb;" 
d="M517 769q-92 0 -175.5 -34.5t-148.5 -99.5t-99.5 -148.5t-34.5 -175.5t34.5 -176t99.5 -149t148.5 -99.5t175.5 -34.5t176 34.5t149 99.5t99.5 149t34.5 176t-34.5 175.5t-99.5 148.5t-149 99.5t-176 34.5zM801 27q-57 -57 -130 -87.5t-153.5 -30.5t-154 30.5t-130 87.5
t-87 130t-30.5 153.5t30.5 154t87 130t130 87t154 30.5t153.5 -30.5t130 -87t87.5 -130t30.5 -154t-30.5 -153.5t-87.5 -130zM525 266v296q0 12 -8.5 20.5t-20.5 8.5t-20.5 -8.5t-8.5 -20.5v-315q0 -19 18 -27zM747 247q0 -14 -9.5 -23t-22.5 -9h-214q-13 0 -22.5 9t-9.5 23
v0q0 13 9.5 22.5t22.5 9.5h214q13 0 22.5 -9.5t9.5 -22.5v0z" />
    <glyph glyph-name="rili1" unicode="&#xe631;" 
d="M918 -118q0 -12 -9 -21t-21 -9h-752q-12 0 -21 9t-9 21v743q0 13 9 21.5t21 8.5h95v-30q0 -39 27.5 -66t66 -27t66 27t27.5 66v30h188v-30q0 -39 27.5 -66t66 -27t66 27t27.5 66v30h95q12 0 21 -8.5t9 -21.5v-743v0zM856 439h-688v-525h688v525v0zM325 285h-94v92h94v-92
zM325 130h-94v93h94v-93zM325 -25h-94v93h94v-93zM481 285h-94v92h94v-92zM481 130h-94v93h94v-93zM481 -25h-94v93h94v-93zM637 285h-94v92h94v-92zM637 130h-94v93h94v-93zM637 -25h-94v93h94v-93zM793 285h-94v92h94v-92zM793 130h-94v93h94v-93zM793 -25h-94v93h94v-93z
M698.5 563q-25.5 0 -43.5 17.5t-18 43.5v63q0 26 18 43.5t43.5 17.5t43.5 -17.5t18 -43.5v-63q0 -26 -18 -43.5t-43.5 -17.5zM323.5 563q-25.5 0 -43.5 17.5t-18 43.5v63q0 26 18 43.5t43.5 17.5t43.5 -17.5t18 -43.5v-63q0 -26 -18 -43.5t-43.5 -17.5z" />
    <glyph glyph-name="dianhua" unicode="&#xe6bc;" 
d="M457 286q-148 147 -108 186q3 3 9 8q16 17 23.5 25.5t15.5 25t5 31.5t-14 38t-34 51q-15 19 -30 30.5t-27 17t-26 3t-22.5 -5t-22 -13t-19.5 -16t-19.5 -19.5t-17.5 -18q-15 -16 -18.5 -47t8 -75.5t35.5 -94.5t67 -109t98.5 -114.5t114.5 -98.5t109 -67t94.5 -35.5
t75.5 -8t47 19.5q4 3 18 16.5t19.5 19.5t16 19.5t13 22t5 22.5t-3 26t-17 27t-30.5 30q-28 23 -51 34t-38 14t-31.5 -5t-25 -15.5t-25.5 -23.5q-5 -6 -8 -9q-39 -39 -186 108v0v0z" />
    <glyph glyph-name="guidang" unicode="&#xe632;" 
d="M323 478h374v-211h-374v211zM791 665h-562q-38 0 -65.5 -27.5t-27.5 -65.5v-562q0 -38 27.5 -65.5t65.5 -27.5h562q38 0 65.5 27.5t27.5 65.5v562q0 38 -27.5 65.5t-65.5 27.5zM791 174h-141q0 -58 -41 -99t-99 -41t-99 41t-41 99h-141v398h562v-398z" />
    <glyph glyph-name="icon13" unicode="&#xe6e0;" 
d="M798 296v229q0 118 -84.5 202t-204 84t-203.5 -84t-84 -202v-229l-116 -230h263q10 -49 49.5 -81.5t91.5 -32.5t91.5 32.5t49.5 81.5h262zM510 9q-28 0 -50 16t-31 41h162q-9 -25 -31 -41t-50 -16zM184 108l89 178v236q0 98 69.5 167.5t167.5 69.5t167 -69.5t69 -167.5
v-236l89 -178h-651z" />
    <glyph glyph-name="sanjiao" unicode="&#xe6a5;" 
d="M16 828v-1023l1022 1023h-1022z" />
    <glyph glyph-name="shangjiantou" unicode="&#xe697;" 
d="M448 364h-128l192 192l192 -192h-128v-320h-128v320z" />
    <glyph glyph-name="xiajiantou" unicode="&#xe698;" 
d="M576 236h128l-192 -192l-192 192h128v320h128v-320z" />
    <glyph glyph-name="laba1" unicode="&#xe633;" 
d="M46 451q0 25 18.5 42.5t44.5 17.5h63v-273h-63q-26 0 -44.5 17.5t-18.5 43.5v152v0zM387 107q5 -12 12 -26q6 -12 16 -28.5t24 -36.5q17 -23 34.5 -48.5t26.5 -46.5t5.5 -34.5t-28.5 -13.5h-57q-20 0 -37 7t-32.5 22t-32 38.5t-35.5 55.5q-23 37 -32 64.5t-12 45.5
q-4 22 0 37q8 -1 19 -4l22 -4q13 -3 30 -6q17 -4 30.5 -7.5t24.5 -7.5q12 -4 22 -8v1zM387 107zM985 460q-6 57 -18 109t-31 94t-46 64t-62 18t-78 -44v0q-43 -38 -96 -63t-109 -41t-109 -25t-96 -17t-70.5 -16.5t-31.5 -22.5v-304q4 -9 37.5 -16t83.5 -14q50 -8 110.5 -17
t119 -24t108 -37t78.5 -55q30 -33 57.5 -37.5t51.5 11.5t43.5 50.5t34 79.5t22 96.5t7.5 102.5t-6 108zM855 80q-31 0 -53 87t-22 210t22 210t53 87q32 0 60 -89t28 -208t-28 -208t-60 -89z" />
    <glyph glyph-name="sousuo1" unicode="&#xe634;" 
d="M669 145q-68 -68 -159 -92t-182 0t-159 92q-51 51 -77.5 117t-26.5 133t26.5 133t77.5 117t117 77.5t133 26.5t133 -26.5t117 -77.5q68 -68 92 -159t0 -182t-92 -159zM246.5 568.5q-71.5 -71.5 -71.5 -173t71.5 -173t172.5 -71.5t172.5 71.5t71.5 173t-71.5 173
t-172.5 71.5t-172.5 -71.5zM941 -20q20 -20 20 -48t-20 -47l-12 -12q-19 -20 -47 -20t-47 20l-243 243q-20 20 -20 47.5t20 47.5l11 12q20 19 48 19t47 -19z" />
    <glyph glyph-name="bianji" unicode="&#xe635;" 
d="M784 525l-126 126l63 63q15 15 37.5 15t37.5 -15l51 -51q15 -15 15 -37.5t-15 -37.5zM418 159l-126 126l342 340l126 -126zM191 56l77 205l124 -125zM756 13q14 0 23 -9.5t9 -22.5t-9 -22.5t-23 -9.5h-564q-13 0 -22 9.5t-9 22.5t9 22.5t22 9.5h564z" />
    <glyph glyph-name="pinayi" unicode="&#xe636;" 
d="M527.5 765q-91.5 0 -174.5 -35.5t-143 -96t-96 -143.5t-36 -174.5t36 -174.5t96 -143t143 -95.5t174.5 -35.5t174.5 35.5t143 95.5t95.5 143t35.5 174.5t-35.5 174.5t-95.5 143.5t-143 96t-174.5 35.5zM526.5 540q20.5 0 35 -14.5t14.5 -35t-14.5 -35t-35 -14.5t-35 14.5
t-14.5 35t14.5 35t35 14.5zM236 435.5q0 20.5 14.5 35t35 14.5t35 -14.5t14.5 -35t-14.5 -35t-35 -14.5t-35 14.5t-14.5 35zM699 91h-346l-53 281l143 -159l83 207l84 -207l145 154zM769.5 380q-20.5 0 -35 14.5t-14.5 35t14.5 35t35 14.5t35 -14.5t14.5 -35t-14.5 -35
t-35 -14.5z" />
    <glyph glyph-name="liucheng" unicode="&#xe6bd;" 
d="M264.5 326.5q0.5 41.5 29.5 69.5t71 28q39 -1 68 -30t29 -69t-29.5 -69.5t-70.5 -28.5q-41 0 -69.5 29t-28 70.5zM706 551q40 0 67.5 -28t27.5 -68q-1 -41 -28.5 -68.5t-69.5 -27.5q-39 0 -67.5 28.5t-27.5 67.5q0 41 28 68.5t70 27.5zM470 -59q0 -39 -26.5 -64.5
t-65 -25t-64.5 27.5t-25 65.5t27.5 64t64.5 25.5q39 -1 64.5 -27.5t24.5 -65.5zM946 279q0 -20 -14 -33.5t-34 -13t-33.5 15.5t-12.5 36q1 19 15 31.5t33 12.5q20 -1 33.5 -15.5t12.5 -33.5zM778 653q-21 0 -33.5 14t-11.5 35q1 18 14.5 32t31.5 14q19 0 33 -15t14 -34
q0 -20 -14 -33.5t-34 -12.5zM124.5 497.5q20.5 -0.5 33.5 -14.5t12 -34q-1 -19 -14.5 -32.5t-32.5 -14.5q-19 0 -32.5 14.5t-13.5 34.5t13.5 33.5t34 13zM377 223q7 -121 10 -179q-18 12 -22.5 85.5t12.5 93.5zM609 411q-103 -36 -142 -48l-10 13q74 25 146 51q2 -7 6 -16z
M279 382q-5 -1 -12 -3.5t-8.5 -2.5h-5.5q-30 14 -69 35q-2 1 -3 3t-2.5 5.5t-2.5 4.5q16 2 17 2q3 0 19 -9q6 -3 67 -35zM862 322q-16 2 -30.5 11.5t-30 23.5t-25.5 21q14 9 31 -2.5t55 -53.5zM736 558q1 79 34 87q-16 -63 -34 -87z" />
    <glyph glyph-name="xitongguanli" unicode="&#xe637;" 
d="M797 187l-10 9q-40 30 -33 82q7 50 -8 98t-45 83t-70.5 58t-82.5 27q-108 12 -187.5 -48.5t-92.5 -163.5q-8 -61 13 -116.5t60.5 -93.5t96.5 -55.5t117 -6.5q26 5 43 -14q1 -1 32 -28q-25 -13 -31.5 -32.5t-4.5 -49.5q4 -57 -34 -73q-60 -24 -104 4q-14 10 -27 51
q-2 7 -2.5 14.5t0.5 17t1 14.5q-1 38 -35 52q-34 15 -61 -11q-33 -32 -33 -33q-17 -15 -37.5 -18t-37.5 9q-30 22 -52 51q-12 17 -8.5 38.5t18.5 37.5q5 6 16.5 16.5t15.5 15.5q25 25 15 57q-11 34 -47 39q-1 0 -53 2q-29 2 -45.5 18t-17.5 46q-1 16 0 35q1 30 19 47.5
t48 18.5h21.5h21.5q39 2 52 36t-14 61q-18 18 -28 29q-9 9 -12 13q-31 52 39 109q21 17 44.5 16t43.5 -19l16 -16t17 -16q28 -26 62 -11q33 14 33 50q-1 32 1 49q1 24 15.5 40.5t37.5 19.5q30 4 61 0q21 -3 35.5 -19.5t15.5 -39.5q1 -8 0.5 -26t0.5 -25q3 -38 36 -51.5
t61 13.5q4 4 11 11.5t10 10.5q11 11 15 14q52 40 114 -33q19 -22 17.5 -46.5t-21.5 -44.5q-26 -26 -32 -33q-25 -31 -9 -63q16 -31 52 -31h44q26 -1 43 -16t20 -39q4 -28 0 -56q-3 -25 -20.5 -40t-42.5 -16h-31q-42 4 -66 -29zM338 345q60 -62 64 -66q30 -31 67 -32t67 28
q30 30 29.5 67t-32.5 69q-6 6 -20.5 19.5t-25 24.5t-20.5 22q82 24 151 -24q53 -37 71.5 -95.5t-3.5 -119.5q-6 -18 9 -33q99 -97 159 -157q22 -23 21 -48t-24 -45q-19 -17 -41.5 -16t-41.5 20q-85 82 -158 157q-17 17 -39 9q-106 -35 -187 42q-73 69 -53 174q4 3 7 4z
M811 33q-29 -3 -31 -30q-1 -12 8.5 -22t23 -10t23 9.5t8.5 23.5q-2 27 -32 29z" />
    <glyph glyph-name="cancel" unicode="&#xe689;" 
d="M128 -32v640h640v-64h128v160q0 13 -9.5 22.5t-22.5 9.5h-832q-13 0 -22.5 -9.5t-9.5 -22.5v-832q0 -13 9.5 -22.5t22.5 -9.5h288v128h-192zM1014 -104l-46 -46q-10 -10 -23.5 -10t-22.5 10l-186 185l-186 -185q-9 -10 -22.5 -10t-23.5 10l-46 46q-10 10 -10 23.5
t10 22.5l185 186l-185 186q-10 9 -10 22.5t10 23.5l46 46q10 10 23.5 10t22.5 -10l186 -185l186 185q9 10 22.5 10t23.5 -10l46 -46q10 -10 10 -23.5t-10 -22.5l-185 -186l185 -186q10 -9 10 -22.5t-10 -23.5v0z" />
    <glyph glyph-name="liuchengchaoqifenduantongji" unicode="&#xe68b;" 
d="M453 199h-189v-90h-113v226h113v67h-113v0h-68v-316v0v-45h181v-68h231q-51 71 -51 158q0 35 9 68zM264 470v-226h205q25 55 72 94.5t107 55.5v76h-159v45h159v226h-384v-226h157v-45h-157zM625 131h45v23h-45v-23zM715.5 357q-93.5 0 -160 -66t-66.5 -160t66.5 -160
t160 -66t159.5 66t66 160t-66 160t-159.5 66zM761 289h22v-45h45v-23h23v-90h-23v-23h-67v181zM602 176h68v45h-45v-22h-23v22h23v23h45v-23h23v-113h-91v68zM557 18v90h23v-45h135v23h23v-23h135v45h23v-90h-339zM783 131h45v90h-45v-90z" />
    <glyph glyph-name="renwuguanli" unicode="&#xe638;" 
d="M203 468h127v-62h316v62h127v-62h126v216h-221v31q0 43 -29 68t-66 25h-190q-44 0 -69.5 -28t-25.5 -65v-31h-221v-216h126v62zM361 653q0 4 1 9t9 13.5t22 8.5h190q3 0 8.5 -0.5t14 -8.5t8.5 -22v-31h-253v31zM646 367v8h-316v-93h-127v93h-94v-310h325q-5 23 -5 47
q0 96 62 168t155 87zM773 356q53 -19 94 -58v77h-94v-19zM298 313v124h-63v-124h63zM688 370q27 0 53 -5v72h-63v-67h10zM908 146h-22q-8 0 -14.5 5t-9.5 12l-12 31q-9 16 4 28l16 16q5 5 5 12.5t-5 12.5l-26 26q-5 5 -12.5 5t-13.5 -5l-15 -15q-13 -13 -29 -5l-30 13
q-7 2 -12 9t-5 14v22q0 7 -5.5 12.5t-12.5 5.5h-36q-8 0 -13 -5.5t-5 -12.5v-22q0 -7 -5.5 -14t-12.5 -9l-30 -13q-16 -8 -29 5l-15 15q-5 5 -12.5 5t-13.5 -5l-25 -26q-5 -5 -5 -12.5t5 -12.5l15 -16q13 -12 4 -28l-12 -31q-2 -7 -9 -12t-14 -5h-22q-8 0 -13 -5t-5 -13v-36
q0 -7 5 -12.5t13 -5.5h22q7 0 14 -5t9 -12l12 -31q9 -16 -4 -28l-15 -16q-5 -5 -5 -12.5t5 -12.5l25 -26q6 -5 13.5 -5t12.5 5l15 16q13 12 29 4l30 -13q7 -2 12.5 -9t5.5 -14v-22q0 -7 5 -12.5t13 -5.5h36q7 0 12.5 5.5t5.5 12.5v22q0 7 5 14t12 9l30 13q16 8 29 -4l15 -16
q6 -5 13.5 -5t12.5 5l26 26q5 5 5 12.5t-5 12.5l-16 16q-13 12 -4 28l12 31q3 7 9.5 12t14.5 5h22q7 0 12.5 5.5t5.5 12.5v36q0 8 -5.5 13t-12.5 5zM690.5 20q-37.5 0 -64 26.5t-26.5 64t26.5 63.5t64 26t64 -26t26.5 -63.5t-26.5 -64t-64 -26.5z" />
    <glyph glyph-name="4" unicode="&#xe639;" 
d="M960 334l-372 291v-138q-83 -9 -154.5 -32.5t-121.5 -54t-91 -71t-66 -78.5t-43.5 -80.5t-27.5 -74.5t-14 -63t-5.5 -42t-0.5 -16q38 48 87.5 85.5t96 59t98.5 36.5t90 20.5t76.5 7.5t52.5 1.5t23 -1.5v-142z" />
    <glyph glyph-name="gongzuoliucheng" unicode="&#xe68c;" 
d="M937 353v191h-319v-85h-362v85h149v191h-319v-191h128v-127h404v-64h149v-64h-149v-85h-170v-276h170v-63h319v191h-319v-85h-128v191h128v-64h319v191h-128v64h128z" />
    <glyph glyph-name="baocun" unicode="&#xe63a;" 
d="M867 -149h-710l-5 2q-62 11 -83 70q0 1 -5 21v710l2 5q12 67 79 85l12 3h610q31 -7 64 -38q45 -44 88 -88q34 -35 41 -66v-611l-2 -5q-12 -67 -79 -85q-2 0 -12 -3zM512 -114h305q40 0 40 39v335q0 39 -39 39h-612q-39 0 -39 -38v-336q0 -8 1 -12q7 -27 39 -27h305z
M494 402h218q41 0 41 41v229q0 41 -41 41h-435q-41 0 -41 -41v-229q0 -41 41 -41h217zM582 678h101v-240h-101v240z" />
    <glyph glyph-name="shujufenxi" unicode="&#xe63b;" 
d="M700.5 632q-18.5 0 -31.5 -13t-13 -32q0 -15 10 -28l-45 -61q-11 7 -24 7q-14 0 -26.5 -10.5t-16.5 -23.5h-82q-4 13 -16 23.5t-27 10.5q-19 0 -32 -13t-13 -32q0 -10 6 -20l-34 -34q-12 7 -25 7q-19 0 -32 -13t-13 -31.5t13 -31.5t31.5 -13t31.5 13t13 32q0 11 -5 21
l33 34q10 -6 26 -6q14 0 26.5 11t16.5 24h82q4 -13 16.5 -24t26.5 -11q19 0 32 12.5t13 30.5q0 11 -6 22l47 64q9 -4 18 -4q18 0 31 13t13 31.5t-13 31.5t-31.5 13zM331 345q-10 0 -17 7t-7 17t7 17t17 7t17 -7t7 -17t-7 -17t-17 -7zM429 436q-10 0 -17 7t-7 17t7 17t17 7
t17 -7t7 -17t-7 -17t-17 -7zM597.5 436q-9.5 0 -16.5 7t-7 17t7 17t16.5 7t16.5 -7t7 -17t-7 -17t-16.5 -7zM701 563q-10 0 -17 7t-7 17t7 17t17 7t17 -7t7 -17t-7 -17t-17 -7zM835 709h-638q-7 0 -12 -4.5t-5 -10.5v-638q0 -12 17 -12h638q6 0 8 2t2 10v638q0 15 -10 15z
M811 96q0 -7 -5 -12.5t-11 -5.5h-558q-7 0 -15 6t-8 12v558q0 6 8 13.5t15 7.5h558q6 0 11 -7.5t5 -13.5v-558zM745 213q0 -38 -27 -65t-65 -27v0q-39 0 -66 27t-27 65v0q0 39 27 66t66 27v0q38 0 65 -27t27 -66v0zM782 -67q0 -19 -17.5 -31t-38.5 -12h-145q-21 0 -39.5 14
t-18.5 33l12 148q0 19 14 31.5t34 12.5h138q21 0 34.5 -12.5t13.5 -31.5zM472 213q0 -38 -27.5 -65t-65.5 -27v0q-38 0 -65.5 27t-27.5 65v0q0 39 27.5 66t65.5 27v0q38 0 65.5 -27t27.5 -66v0zM509 -67q0 -19 -17.5 -31t-39.5 -12h-144q-21 0 -40 14t-19 33l12 148
q0 19 14 31.5t34 12.5h139q20 0 33.5 -12.5t13.5 -31.5z" />
    <glyph glyph-name="daochuexport" unicode="&#xe63c;" 
d="M256 -20v512h128v128h320v-320h64v384h-449l-127 -127v-641h256v64h-192zM448 172h192v-128h-192v128zM640 236l192 -128l-192 -128v256z" />
    <glyph glyph-name="daoruimport" unicode="&#xe63d;" 
d="M192 172h192v-128h-192v128zM384 236l192 -128l-192 -128v256zM383 684l-127 -127v-257h64v192h128v128h320v-640h-192v-64h192h64v64v704h-449z" />
    <glyph glyph-name="txwb" unicode="&#xe69d;" 
d="M542 713q77 0 144 -29t117 -79t79 -117t29 -143q0 -77 -29 -144t-79 -117t-117 -79.5t-144 -29.5h-11q-6 0 -11 1h-3q-13 2 -22 12t-9 23q0 15 10.5 25t24.5 10q4 0 10 -1l1 1h10q61 0 116 23.5t95.5 64t64 95t23.5 116t-23.5 116.5t-64 95t-95.5 63.5t-116.5 23.5
t-116 -23.5t-95 -63.5t-64 -95t-23.5 -116q0 -63 25 -120q5 -8 5 -19q0 -14 -10 -24.5t-25 -10.5q-9 0 -16.5 4t-12.5 11q-17 36 -26.5 75.5t-9.5 83.5q0 76 29 143t79 117t117.5 79t143.5 29zM713 345q0 -35 -13.5 -66.5t-36.5 -54.5t-54 -36.5t-67 -13.5q-29 0 -55.5 9
t-47.5 26q-9 -11 -23.5 -28t-31 -37.5t-33.5 -43t-32 -44.5q-21 -33 -39.5 -66.5t-31.5 -61.5q-17 -34 -30 -65l-88 3q12 37 31 77q16 34 39.5 76t56.5 84q18 23 37.5 46t38.5 43.5t35 37.5t27 28q-23 40 -24 87q0 35 13.5 66t36.5 54t54.5 36.5t66.5 13.5q36 0 67 -13.5
t54 -36.5t36.5 -54t13.5 -66z" />
    <glyph glyph-name="iconfontordinaryxiajiantou" unicode="&#xe6a6;" 
d="M512 -112l480 608h-960z" />
    <glyph glyph-name="cuo" unicode="&#xe63e;" 
d="M886 -2l-334 333l334 334q9 8 9 20t-8.5 20.5t-20 8.5t-20.5 -9v0l-334 -333l-334 333v0q-8 9 -19.5 9t-20 -8.5t-8.5 -20t8 -20.5v0v0h1l333 -334l-331 -331q-12 -9 -12 -22q0 -12 8.5 -20.5t20.5 -8.5t20 9v-1l334 334l334 -333q8 -9 20 -9t20.5 8.5t8.5 20t-9 20.5v0z
" />
    <glyph glyph-name="tubiao06" unicode="&#xe690;" 
d="M352 508l386 -386l-52 -51l-386 386zM687 508l51 -51l-386 -386l-51 51zM512 -202q-100 0 -191 39t-156.5 105t-104.5 157t-39 191t39 190.5t104.5 156.5t156.5 105t191 39t191 -39t156.5 -105t104.5 -157t39 -190.5t-39 -190.5t-104.5 -157t-156.5 -105t-191 -39z
M512 708q-114 0 -210 -56t-152.5 -152.5t-56.5 -210t56.5 -210t152.5 -152.5t210 -56t210 56t152.5 152.5t56.5 210t-56.5 210t-152.5 152.5t-210 56z" />
    <glyph glyph-name="xiaoxi" unicode="&#xe63f;" 
d="M924 24h-199v0h-328v0h-42v0h-11l-116 -111q-12 -12 -30 -12v0v0v0q-18 1 -30 12v0.5t-1 0.5q-2 3 -4 5q-1 1 -1.5 2l-0.5 1q-2 3 -2 4t-0.5 1.5t-0.5 1.5q-1 3 -2 5q-1 4 -1 8v0v82h-7v0h-50q-17 0 -29.5 12t-12.5 29v585q0 16 12.5 28t29.5 12h826q18 0 30.5 -12
t12.5 -28v-585q0 -17 -12.5 -29t-30.5 -12zM297.5 432q-35.5 0 -60.5 -24t-25 -57.5t25 -57.5t60.5 -24t60.5 24t25 57.5t-25 57.5t-60.5 24zM511.5 432q-35.5 0 -60.5 -24t-25 -57.5t25 -57.5t60.5 -24t60.5 24t25 57.5t-25 57.5t-60.5 24zM724.5 432q-35.5 0 -60.5 -24
t-25 -57.5t25 -57.5t60.5 -24t60.5 24t25 57.5t-25 57.5t-60.5 24z" />
    <glyph glyph-name="cloud" unicode="&#xe640;" 
d="M897 288q-4 48 -40 80.5t-85 32.5q-15 0 -30 -3q-20 60 -71.5 98t-116.5 38q-54 0 -99.5 -27t-71.5 -72q-30 15 -63 15q-59 0 -101.5 -40.5t-45.5 -99.5q-46 -7 -77.5 -43t-31.5 -84q0 -53 37.5 -90.5t90.5 -37.5q50 0 86 33q36 -32 85 -32q62 0 101 50q22 -29 55 -46
t71 -17q78 0 125 62q18 -29 48 -46t65 -17q55 0 94 39t39 93q0 36 -17.5 66t-46.5 48z" />
    <glyph glyph-name="add-round" unicode="&#xe641;" 
d="M511.5 736q-91.5 0 -174 -35.5t-142.5 -95.5t-95.5 -143t-35.5 -174t35.5 -174t95.5 -143t142.5 -95t174 -35t174 35t142.5 95t95.5 143t35.5 174t-35.5 174t-95.5 143t-142.5 95.5t-174 35.5zM761 293v-14v0q-2 -22 -18.5 -37.5t-38.5 -15.5h-130v-187h-71v0
q-23 1 -38.5 17.5t-15.5 39.5v130h-187v71v0q1 22 17.5 37.5t39.5 15.5h130v131v57h71v0q23 -2 38.5 -18.5t15.5 -38.5v-131h187v-57z" />
    <glyph glyph-name="tags" unicode="&#xe642;" horiz-adv-x="1104" 
d="M8 792v0v0zM262 538q0 30 -21.5 51.5t-51.5 21.5t-51 -21.5t-21 -51.5t21 -51.5t51 -21.5t51.5 21.5t21.5 51.5zM867 211q0 -30 -21 -51l-278 -279q-23 -20 -52 -20q-30 0 -51 20l-405 406q-22 21 -37 57.5t-15 66.5v236q0 29 21.5 50.5t51.5 21.5h235q30 0 66.5 -15
t58.5 -36l405 -405q21 -22 21 -52zM1085 211q0 -30 -21 -51l-279 -279q-22 -20 -51 -20q-21 0 -34 7.5t-30 25.5l267 266q21 21 21 51t-21 52l-406 405q-21 21 -57.5 36.5t-66.5 15.5h127q30 0 66.5 -15.5t57.5 -36.5l406 -405q21 -22 21 -52v0z" />
    <glyph glyph-name="xialasanjiao" unicode="&#xe6a7;" 
d="M65 -147h893v895z" />
    <glyph glyph-name="weibiaoti111" unicode="&#xe643;" 
d="M510.5 799q-100.5 0 -192.5 -39.5t-159 -106.5t-106.5 -159t-39.5 -192.5t39.5 -193t106.5 -159t159 -106t192.5 -39.5t193 39.5t159 106t106 159t39.5 193t-39.5 192.5t-106 159t-159 106.5t-193 39.5zM510.5 812q103.5 0 198 -40.5t163 -109t109 -163t40.5 -198
t-40.5 -198t-109 -163t-163 -109t-198 -40.5t-198 40.5t-163 109t-109 163t-40.5 198t40.5 198t109 163t163 109t198 40.5zM733 266l141 -142q11 -10 12.5 -23t-5 -22.5t-16 -15.5t-22.5 -4.5t-23 11.5l-141 141zM673 146v-63q0 -5 -4 -9t-9 -4h-363q-4 0 -8.5 4t-4.5 9v444
q0 5 4.5 9t8.5 4h137q4 0 6.5 -0.5t4.5 -3.5t2 -9q0 -9 -3 -11t-10 -2h-123v-418h336v50q0 4 0.5 6t3.5 4.5t9 2.5q9 0 11 -3.5t2 -9.5zM582 512q-62 0 -106 -44t-44 -106t44 -106t106 -44t106 44t44 106t-44 106t-106 44zM582.5 550q77.5 0 132.5 -55t55 -132.5t-55 -132.5
t-132.5 -55t-132.5 55t-55 132.5t55 132.5t132.5 55zM509 449q15 13 34 20t39 7q47 0 80.5 -33.5t33.5 -80.5q0 -20 -7 -39t-20 -34q-8 -10 -18 -1.5t-2 18.5q10 11 15 26t5 30q0 36 -25.5 61.5t-61.5 25.5q-15 0 -30 -5t-26 -15q-10 -8 -18.5 2t1.5 18v0z" />
    <glyph glyph-name="houtuiyibu" unicode="&#xe644;" 
d="M958 -147q-2 10 -6.5 27.5t-23.5 68t-43.5 96t-68.5 101.5t-96.5 96t-130.5 68t-167 28v192l-360 -321l360 -333v217q66 0 114 -3t102 -11t95 -24.5t83 -42.5t77 -65.5t65 -93.5z" />
    <glyph glyph-name="baobiao" unicode="&#xe645;" 
d="M964 95v35l-37 -3v484h-236v70h-361v-70h-234v-481h-36v-35h433v-141h-91v-35h217v35h-90v141h435zM366 646h289v-35h-289v35zM365 249l-143 73l15 28l123 -64l174 160l127 -92l93 122l13 -9l12 -10l-111 -147l-132 96z" />
    <glyph glyph-name="4he" unicode="&#xe646;" 
d="M518.5 679q-101.5 0 -188 -50t-136.5 -136.5t-50 -188t50 -188t136.5 -136.5t188 -50t188 50t136.5 136.5t50 188t-50 188t-136.5 136.5t-188 50zM518.5 -33q-91.5 0 -169.5 45t-123 123t-45 169.5t45 169t123 122.5t169.5 45t169 -45t123 -122.5t45.5 -169t-45.5 -169.5
t-123 -123t-169 -45zM482 495q18 -10 32 -25h1q0 -1 2 -2l8 -10q14 -14 32 -22q2 0 4 -1q22 -6 44 3t34 29q15 26 7.5 54t-32.5 42l-10 5q1 0 1 1q-8 3 -9 3q-91 28 -181.5 -7.5t-139.5 -120.5q-1 -1 -2 -3q33 54 94 69.5t115 -15.5zM551 112q-17 10 -32 24v0q-1 1 -2 3
q-4 4 -8 9q-14 14 -33 22q-1 0 -3 1q-23 6 -45 -2.5t-33 -29.5q-15 -25 -7.5 -53.5t32.5 -42.5q4 -2 9 -4v-2q7 -2 8 -3q92 -28 182.5 7.5t139.5 120.5q1 1 2 3q-33 -54 -94 -69.5t-116 16.5zM363 312q14 14 21 32q1 2 2 3q6 23 -3 45t-30 34q-25 15 -53 7.5t-42 -32.5
q-2 -4 -4 -9l-2 1q-2 -7 -3 -9q-27 -93 8.5 -184t120.5 -140l3 -2q-54 33 -70 94.5t16 116.5q10 17 24 32v0l2 2q5 5 10 9zM660 545q0 1 -3 2q54 -33 70 -94.5t-16 -116.5q-12 -22 -24 -34v0l-2 -2q-5 -4 -10 -9q-14 -14 -21 -32q-1 -2 -2 -3q-6 -23 3 -45t30 -34
q25 -15 53 -7.5t42 32.5q2 4 4 9h1.5t0.5 -1q2 8 3 9q27 93 -8.5 185t-120.5 141z" />
    <glyph glyph-name="ditudingwei" unicode="&#xe647;" 
d="M512 -165q-84 0 -154.5 14.5t-118 47t-47.5 78.5q0 36 32.5 65.5t79 46t100.5 22.5l6 1l-142 226q-7 13 -12 26l-4 7l-1 3q-18 49 -18 100q0 116 81.5 197.5t197 81.5t197.5 -81.5t82 -197.5q0 -51 -19 -100l-2 -5h1l-2 -3q-6 -14 -13 -27l-244 -405l-58 94h-2
q-64 -5 -109.5 -20t-59.5 -28l-3 -3l3 -2q19 -18 79 -34t144 -16h11v0q85 0 145 16t79 33l3 3l-3 3q-11 9 -42.5 21.5t-74.5 20.5l49 78q77 -17 118 -49t41 -74q0 -46 -48 -78.5t-118.5 -47t-153.5 -14.5v0zM512 623q-49 0 -84 -35t-35 -84t35 -84t84 -35t84 35t35 84
t-35 84t-84 35z" />
    <glyph glyph-name="youxiang" unicode="&#xe6be;" 
d="M886 604h-748q-31 0 -53 -22t-22 -53v-458q0 -31 22 -53t53 -22h748q31 0 53 22t22 53v458q0 31 -22 53t-53 22v0zM868 550l-298 -264q-39 -35 -58 -35t-58 35l-298 264h712v0zM119 88v414l233 -205l-233 -209v0zM158 50l234 207l38 -34q34 -29 82 -29t82 29l38 34
l234 -207h-708v0zM905 88l-233 209l233 205v-414v0zM905 88z" />
    <glyph glyph-name="qqkongjian" unicode="&#xe69e;" 
d="M757 372l-300 -215q14 -2 39 -5t103.5 -7.5t159.5 -3.5l-8 36l258 224q8 6 5 16t-13 11l-341 29l-134 315q-4 10 -14 10t-14 -10l-134 -315l-341 -29q-10 -1 -13 -11t5 -16l258 -224l-77 -334q-3 -10 5.5 -16t17.5 -1l293 177l293 -177q4 -2 8 -2q5 0 9 3q9 6 6 16
l-61 264q12 6 25.5 14.5t21.5 14.5l8 6q-2 -1 -7 -3t-25 -7t-45 -9.5t-69 -9t-95.5 -6.5t-126 -0.5t-158.5 7.5l298 216q-1 2 -13.5 5.5t-109 12t-263.5 13.5q-3 1 2 2q50 15 191 25q210 15 356 -16z" />
    <glyph glyph-name="liaotianjilu" unicode="&#xe648;" 
d="M646 446.5q13 -12.5 31 -12.5t31 12.5t13 31t-13 31.5t-31 13t-31 -13t-13 -31.5t13 -31zM808 446.5q13 -12.5 31 -12.5t31 12.5t13 31t-13 31.5t-31 13t-31 -13t-13 -31.5t13 -31zM957 534v-113q0 -37 -32.5 -63.5t-77.5 -26.5h-41h-114l-177 -118q-27 0 -10 39l14 28
q36 71 29 100q-1 5 -3 9v145q0 38 32 64.5t77 26.5h193q45 0 77.5 -26.5t32.5 -64.5zM760 254q38 -66 29 -128q-9 -63 -62 -93l-218 -126q-29 -17 -61 -17q-42 0 -81 26t-66 73l-207 359q-38 66 -29 128q9 63 62 94l217 125q53 30 112 7t97 -89l-51 -30q-26 45 -61.5 62
t-66.5 -1l-218 -125q-28 -17 -33 -52q-6 -41 22 -90l207 -358q26 -45 61.5 -62t66.5 1l218 126q28 16 33 51q6 41 -22 90zM659 202.5q6 -10.5 6.5 -20t-4.5 -12.5l-229 -133q-6 -3 -14 2.5t-14 16t-6.5 20t4.5 12.5l230 133q5 3 13 -2.5t14 -16zM473 323q14 -25 6 -30
l-139 -80q-3 -2 -9.5 4.5t-12.5 16.5q-15 26 -7 30l139 80q3 2 9.5 -4t13.5 -17zM453 526.5q6 -10.5 6.5 -20t-4.5 -13.5l-229 -132q-6 -3 -14 2.5t-14 16t-6.5 20t4.5 12.5l230 132q5 3 13 -2t14 -15.5z" />
    <glyph glyph-name="00" unicode="&#xe649;" 
d="M578 298q7 -7 16 -7q10 0 16.5 7t6.5 17q0 12 -10 19v0q-8 6 -19 11q43 36 43 92q0 50 -35 85.5t-85 35.5t-85.5 -35.5t-35.5 -85.5q0 -57 43 -93q-42 -21 -68.5 -58.5t-29.5 -87.5v0v0v1q0 -10 6.5 -16.5t16.5 -6.5t16.5 6.5t6.5 15.5v0v0q5 51 42 84t88 33q37 0 67 -18
v1zM436 437q0 31 22 53t52.5 22t52.5 -22t22 -52.5t-22 -52.5t-52.5 -22t-52.5 22t-22 52v0zM641 200q0 10 6.5 17t16.5 7t16.5 -7t6.5 -17h-46zM740 387q2 -2 4.5 -5t5.5 -5q5 -4 5.5 -11t-5.5 -15l-123 -123q-52 -22 -55 -23q-2 -1 -3.5 0.5t-0.5 3.5l23 53
q116 116 123 124q6 5 13.5 5t12.5 -4v0zM861 664h-700q-30 0 -51 -21.5t-21 -51.5v-440q0 -31 21 -52t51 -21h487v63h-490v459h705l1 -459h-252v-63h249q30 0 51 21t21 52v440q0 30 -21 51.5t-51 21.5zM482 78h69v-102h-69v102zM306 -23h423v-64h-423v64z" />
    <glyph glyph-name="shanchu" unicode="&#xe6ec;" 
d="M910 672h-76h-1.5h-2.5h-2.5h-1.5h-261v47q0 17 -12.5 29.5t-30.5 12.5q-3 0 -10 -1q-8 1 -11 1q-18 0 -30 -12.5t-12 -29.5v-47h-255q-5 1 -9.5 1t-9.5 -1h-75q-40 0 -40 -33q0 -17 11 -26.5t29 -9.5h48l1 -681q1 -34 24 -57t56 -23h42v-1l463 1v0h42q34 0 56.5 24
t22.5 60v678h45q18 0 30 9.5t12 26.5q0 32 -42 32zM794 -4q0 -42 -10 -59.5t-38 -22.5h-477q-18 4 -27 13.5t-12 29.5l-1 646l565 1v-690v82zM406 531q-15 0 -25 -10t-10 -25v-477q0 -14 10 -24.5t25 -10.5t25 10.5t10 24.5v477q0 15 -10 25t-25 10zM618 531q-15 0 -25 -10
t-10 -25v-477q0 -14 10 -24.5t25 -10.5t25 10.5t10 24.5v477q0 15 -10 25t-25 10z" />
    <glyph glyph-name="shangchuan" unicode="&#xe64a;" 
d="M923 128l-33 -183h-756l-33 183h-84v-292h991v292h-85zM125 330h249v-107h282v107h246l-386 412zM373 42h283v38h-283v-38zM373 114h283v73h-283v-73z" />
    <glyph glyph-name="xiazai" unicode="&#xe64b;" 
d="M923 116l-33 -183h-756l-33 183h-84v-292h991v292h-85zM902 442h-248v106h-284v-106h-245l386 -413zM654 730h-284v-38h284v38zM654 658h-284v-73h284v73z" />
    <glyph glyph-name="shangjiantou1" unicode="&#xe699;" 
d="M470 -177q-44 0 -59.5 20.5t-15.5 65.5q0 21 -0.5 65t-1 93.5t-1.5 96.5t-1 75q0 40 -7.5 62.5t-35.5 21.5q-20 0 -48.5 1t-49.5 0q-36 0 -45.5 19.5t13.5 49.5q25 31 57.5 73t67.5 86t68 87t59 76q24 30 46 31t46 -27q25 -30 57 -69.5t67 -82t68.5 -84t60.5 -73.5
q30 -36 23 -59t-43 -23q-12 0 -25.5 -0.5t-29 -1t-30.5 -1t-27 -0.5q-26 -1 -32.5 -16.5t-5.5 -42.5q0 -29 0.5 -77t1 -100.5t1.5 -101.5t1 -80q0 -13 -2 -27.5t-9.5 -26t-21.5 -20t-36 -8.5q-28 0 -53 -0.5t-57 -1.5z" />
    <glyph glyph-name="xiajiantou1" unicode="&#xe69a;" 
d="M554 753q44 0 59.5 -20.5t15.5 -65.5q0 -21 0.5 -65t1 -93.5t1.5 -96.5t1 -75q0 -40 7.5 -62.5t35.5 -21.5q20 0 48.5 -1t49.5 0q36 0 45.5 -19.5t-13.5 -49.5q-25 -31 -57.5 -73t-67.5 -86t-68 -87t-59 -76q-24 -30 -46 -31t-46 27q-25 30 -57 69.5t-67 82t-68.5 84
t-60.5 73.5q-30 36 -23 59t43 23q12 0 25.5 0.5t29 1t30.5 1t27 0.5q26 1 32.5 16.5t5.5 42.5q0 29 -0.5 77t-1 100.5t-1.5 101.5t-1 80q0 13 2 27.5t9.5 26t21.5 20t36 8.5q28 0 53 0.5t57 1.5z" />
    <glyph glyph-name="wenjianjia3" unicode="&#xe64c;" 
d="M921 332h-74v140q0 27 -19 46t-46 19h-328q-15 0 -25.5 10.5t-10.5 25.5v0q0 26 -19 45t-46 19h-230q-27 0 -46 -19t-19 -45v-546q0 -27 19 -45.5t46 -18.5v0h660q27 0 53 19t36 45l89 241q10 26 -1.5 45t-38.5 19zM351 571q1 -42 31 -71.5t72 -29.5h326v-138h-520
q-26 0 -52 -18.5t-36 -45.5l-47 -126v429h226z" />
    <glyph glyph-name="tehuijingxuan" unicode="&#xe64d;" 
d="M1019.5 178q-10.5 -43 -42 -74t-73.5 -41q9 -42 -5 -83.5t-48 -70t-78.5 -35.5t-83.5 8q-18 -39 -53.5 -64.5t-80.5 -29t-84.5 16t-62.5 55.5q-38 -22 -81.5 -22t-83.5 23q-38 23 -58.5 61.5t-18.5 80.5q-43 4 -79 29.5t-54 66.5q-17 42 -11 84.5t33 75.5
q-33 28 -47 69.5t-4 84.5t40.5 74.5t72.5 42.5q-10 42 3 83.5t47 71t78 37.5t83 -7q17 39 52.5 65.5t80 31t84.5 -14.5t64 -54q37 22 80.5 23t84.5 -21q42 -24 63 -66t16 -88q47 -1 86 -27.5t57 -71.5q17 -42 10 -84t-35 -75q32 -29 45.5 -70.5t3 -84.5zM273 36q17 -2 39 25
q33 30 64 61l3 3l2 2q3 -2 3 -5v-51q2 -35 59 -35h144q72 -5 82 103h-23q-5 -34 -32 -36h-125q-19 2 -19 17v22q-3 44 -37 47q-17 0 -35 -22q-44 -45 -64 -69q-9 -5 -4 5q9 26 32 64q1 3 3.5 8t3.5 6h-91q-34 -76 -37 -108q3 -34 32 -37zM772 538h-219v37h-83v-37h-217v-32
h217v-32h-187v-157h187v-45q-155 0 -229 8l17 -89q153 12 403 59q15 -17 15 -22q0 -12 -17 -20l2 -12q86 5 93 52q5 19 -51 71q37 8 37 44v60v4q-5 28 -40 47h-147v32h219v32zM727 164q-19 22 -39 20q-15 0 -56 -17q-20 -8 -30 -8q-15 -7 -42 59l-73 -32q32 -71 56 -64
q10 0 32 13q64 27 79 27q39 9 37 -128l93 44q-25 52 -57 86zM369 381h101v-32h-101v32zM369 445h101v-35h-101v35zM656 425v-15h-103v35h86q17 0 17 -20zM656 366q0 -17 -17 -17h-86v32h103v-15zM614 295q15 -13 23 -20h-37q-32 -3 -47 -3v45h120z" />
    <glyph glyph-name="6" unicode="&#xe64e;" 
d="M429 -108h-23h-311v718h736v-438q25 -7 49 -16v508h-837v-817h439q-32 20 -53 45zM442 -24q76 -116 202 -141l35 -4q56 0 103 15t73.5 36t45.5 42.5t25 36.5l7 15q-47 62 -100 96t-99.5 38t-91.5 -5.5t-80.5 -31.5t-62.5 -43.5t-42.5 -37.5t-14.5 -16zM688 -115
q-37 0 -63.5 25.5t-26.5 61.5t26.5 61t63.5 25t63 -25t26 -61t-26 -61.5t-63 -25.5zM665 -48q-1 14 -11.5 24t-25.5 10t-25.5 -10t-10.5 -25t10.5 -25t25.5 -10t25.5 10t11.5 25v1zM541 71h-318q-13 0 -25 12.5t-18 25.5l-6 12l1 33l15 -1q15 0 23.5 8.5t9.5 17.5l1 8
q0 15 -8.5 23.5t-16.5 9.5l-8 1h-17l1 65h15q14 0 22.5 8.5t10.5 16.5l2 8q0 15 -9 24t-17 10l-9 1h-15l-1 65l16 1q16 0 24.5 8t8.5 17l1 8q0 13 -8 21.5t-17 10.5l-8 1h-17v32q0 7 5 12t12 5h299q7 0 12 -5t5 -12l33 -1q6 0 10 -4t5 -8l1 -4v-414q0 -6 -3.5 -9.5
t-7.5 -5.5l-4 -1v0v0zM473 419h-216v-133h216v133v0v0zM524 498l-17 5v-365q0 -7 -5 -11.5t-12 -4.5l-283 -1q0 -5 4 -9t8 -6l5 -2h283q7 0 11.5 4t4.5 8l1 4v378v0v0zM299 386h133q8 0 8 -8.5t-8 -8.5h-133q-9 0 -9 8.5t9 8.5v0v0zM299 336h133q8 0 8 -8t-8 -8h-133
q-9 0 -9 8t9 8v0v0zM207 452q0 -7 -5 -12t-12 -5h-33q-7 0 -12 5t-5 12t5 12t12 5h33q7 0 12 -5t5 -12v0v0zM141 320q0 6 5 11t12 5h32q7 0 12 -5t5 -11.5t-5 -11.5t-12 -5h-32q-7 0 -12 5t-5 12v0v0zM157 204h33q7 0 12 -5t5 -12t-5 -11.5t-12 -4.5h-33q-7 0 -12 4.5
t-5 11.5t5 12t12 5v0v0zM157 204z" />
    <glyph glyph-name="jieyueguanli" unicode="&#xe64f;" 
d="M937 623q-16 2 -43 2q-115 0 -248 -46q51 29 112.5 47t85 21t36.5 3q8 1 13 6.5t4.5 13t-6 12.5t-13 4.5t-19.5 -1.5t-43.5 -6.5t-62 -14.5t-72 -26.5t-77.5 -41.5q27 26 62.5 47.5t63.5 33.5t57.5 22t40.5 12.5t17 3.5q7 1 11.5 7.5t3 13.5t-7.5 11.5t-14 2.5
q-12 -2 -30 -6.5t-63 -21t-84 -38.5t-81.5 -61t-67.5 -87q-25 47 -67.5 86.5t-81.5 61.5t-84 38.5t-63 21t-30 6.5q-8 1 -14 -3t-7.5 -11.5t3 -13.5t11.5 -7q6 -2 17 -4.5t40.5 -12t58 -21.5t64 -34t62.5 -47q-36 23 -77.5 41t-72.5 26.5t-62.5 14.5t-43.5 7t-19.5 1t-13 -5
t-6 -12.5t4.5 -13t13 -5.5q13 -1 36.5 -3.5t85 -20.5t112.5 -47q-133 46 -248 46q-27 0 -43 -3q-11 -1 -17.5 -9.5t-5.5 -18.5l45 -601q1 -10 8.5 -17t17.5 -8q62 -2 123 -14.5t100 -26.5t74.5 -32t46 -25t17.5 -11q7 -6 16 -6q6 0 12 3l6 4q14 10 36 22t69 33t114 36
t140 18q10 0 17.5 7t8.5 18l45 600q1 11 -5.5 19t-17.5 10zM485 -71q-144 81 -324 92l-41 549q5 1 10 1q165 0 355 -96v-546zM863 22q-180 -12 -324 -92v546q190 95 355 95h10z" />
    <glyph glyph-name="jifen" unicode="&#xe6aa;" 
d="M511 12v116h-168v50h168v51h-168v53h138l-164 254h81l117 -185q20 -31 31 -55q9 19 33 58l111 182h87l-164 -254h138v-53h-167v-51h167v-50h-167v-116h-73v0zM930 288q1 -77 -26 -149q-27 -73 -78 -131q-53 -61 -123 -98q-19 -9 -37 -17q-19 -7 -38 -13q-21 -6 -40 -9
q-10 -2 -21 -4q-5 0 -10 -1l-5 -1h-3h-2v0v0h-3h-2l-6 -1h-10q-10 -1 -21 -1q-22 1 -42 3q-21 3 -42 7q-10 2 -20 5t-21 7q-83 27 -148 87q-66 60 -102 143q-5 10 -9 20q-4 11 -7 21.5t-6 21.5q-3 9 -5 22q-5 23 -7 44l-2 22v11v5v3v3v6v5v11l2 22q2 22 7 44q1 7 2 11
q1 6 3 11l6 22q6 20 16 41q36 82 102 143q65 59 148 87q40 13 83 19q21 2 42 2h21q5 0 10 -1h6h5l5 -1h5l10 -2q11 -1 21 -3q19 -3 40 -9q19 -6 38 -14q18 -7 36 -17q71 -36 124 -97q51 -59 78 -131t26 -149v0v0zM922 288q0 75 -28 145q-29 69 -81 122q-53 54 -122 83
q-35 14 -71 21t-73 7t-73.5 -7.5t-70 -22t-64.5 -35.5q-30 -21 -56 -48q-52 -53 -80 -122q-28 -68 -28 -143q0 -37 7 -73t21 -70q28 -69 80 -122q26 -27 56 -48q31 -21 64.5 -35.5t70 -22t73.5 -7.5t73 7t71 21q69 29 121.5 82.5t81.5 122.5q28 70 28 145v0z" />
    <glyph glyph-name="weituo" unicode="&#xe650;" 
d="M717 643h-55q-18 18 -43 18h-10q-4 38 -32 63.5t-66 25.5t-66 -25.5t-32 -63.5h-8q-25 0 -43 -18h-55q-38 0 -72.5 -26.5t-34.5 -62.5v-605q0 -36 34.5 -62.5t72.5 -26.5h410q38 0 72.5 26.5t34.5 62.5v605q0 36 -34.5 62.5t-72.5 26.5zM511 701q21 0 35.5 -14.5
t14.5 -35.5t-14.5 -36t-35.5 -15t-36 15t-15 36t15 35.5t36 14.5zM770 2q0 -37 -26 -63t-63 -26h-338q-37 0 -63 26t-26 63v516q0 37 26 63t63 26h1q-1 -6 -1 -8q0 -26 18 -44.5t44 -18.5h214q26 0 44 18.5t18 44.5q0 2 -1 8h1q37 0 63 -26t26 -63v-516zM690 198h-356
q-11 0 -19 -8t-8 -19t8 -19t19 -8h356q11 0 19 8t8 19t-8 19t-19 8zM690 376h-356q-11 0 -19 -8t-8 -19t8 -18.5t19 -7.5h356q11 0 19 7.5t8 18.5t-8 19t-19 8zM690 287h-356q-11 0 -19 -8t-8 -19t8 -18.5t19 -7.5h356q11 0 19 7.5t8 18.5t-8 19t-19 8zM690 465h-356
q-11 0 -19 -8t-8 -19t8 -18.5t19 -7.5h356q11 0 19 7.5t8 18.5t-8 19t-19 8zM476 106q-26 -14 -50.5 -44.5t-36.5 -54.5l-11 -24l-23 45l-49 -29q36 -13 75 -62q15 28 47.5 64t50.5 40q-3 9 -4.5 18t-1 14.5l1.5 16.5t1 16z" />
    <glyph glyph-name="lianxiren" unicode="&#xe651;" 
d="M704 371q-20 0 -30.5 -16.5t-10.5 -43.5q0 -30 9 -45t29 -15q11 0 18 4q8 4 16 12v97q-8 4 -15 6q-7 1 -16 1zM855 625h-686q-47 0 -80.5 -33.5t-33.5 -80.5v-458q0 -47 33.5 -80.5t80.5 -33.5h76v76h115v-76h304v76h115v-76h76q47 0 80.5 33.5t33.5 80.5v458
q0 47 -33.5 80.5t-80.5 33.5zM456 192q0 -49 -150 -49t-150 49v16q0 33 102 70q3 1 6 4t6.5 10.5t-2.5 18.5q-37 38 -37 84q0 41 20.5 64t54 23t54 -23t20.5 -64q0 -46 -36 -84v0q-9 -28 7 -33q105 -35 105 -70v-16zM860 262q-7 -25 -19 -44h-99l-3 13q-6 -4 -10 -7
q-5 -3 -11 -5q-8 -3 -14 -4t-16 -1q-15 0 -28.5 6.5t-23.5 18.5q-9 12 -14.5 30.5t-5.5 40.5q0 23 6.5 41t18.5 32q11 12 25.5 19t31.5 7q13 0 23 -5t15 -10v11l45 1v-156h30q6 13 9.5 30t3.5 35q0 32 -8.5 55.5t-24.5 39.5q-17 16 -38.5 24t-46.5 8q-24 0 -45 -9
q-22 -8 -40 -25q-17 -17 -27 -41t-10 -54q0 -31 9.5 -55.5t26.5 -41.5q17 -16 39 -24.5t46 -8.5q17 0 37 3t36 8v-42q-19 -4 -35 -5q-17 -2 -38 -2q-36 0 -66.5 12t-52.5 34q-22 23 -34.5 54t-12.5 68q0 36 12.5 66.5t35.5 53.5q23 22 53 35q31 13 66 13q34 0 64 -12t52 -33
q22 -22 34 -52t12 -68q0 -26 -8 -54z" />
    <glyph glyph-name="zuzhi" unicode="&#xe652;" 
d="M193 321h299v-180q0 -8 5.5 -13.5t13.5 -5.5v0q8 0 13.5 5.5t5.5 13.5v180h299v-199q0 -8 5.5 -13.5t13.5 -5.5v0q8 0 13.5 5.5t5.5 13.5v206q0 12 -9 21t-22 9h-306v82q0 8 -5.5 13.5t-13.5 5.5v0q-8 0 -13.5 -5.5t-5.5 -13.5v-82h-306q-12 0 -21.5 -9t-9.5 -21v-206
q0 -8 5.5 -13.5t13.5 -5.5v0q8 0 13.5 5.5t5.5 13.5v199v0zM268 73h-187q-8 0 -13.5 -5.5t-5.5 -13.5v-181q0 -8 5.5 -13.5t13.5 -5.5h187q8 0 13.5 5.5t5.5 13.5v181q0 8 -5.5 13.5t-13.5 5.5v0zM605 73h-187q-8 0 -13.5 -5.5t-5.5 -13.5v-181q0 -8 5.5 -13.5t13.5 -5.5
h187q7 0 12.5 5.5t5.5 13.5v181q0 8 -5.5 13.5t-12.5 5.5v0zM942 73h-188q-7 0 -12.5 -5.5t-5.5 -13.5v-181q0 -8 5.5 -13.5t12.5 -5.5h188q7 0 12.5 5.5t5.5 13.5v181q0 8 -5.5 13.5t-12.5 5.5v0zM361 489h300q8 0 13.5 5.5t5.5 13.5v224q0 8 -5.5 13.5t-13.5 5.5h-300
q-7 0 -12.5 -5.5t-5.5 -13.5v-224q0 -8 5.5 -13.5t12.5 -5.5v0zM361 489z" />
    <glyph glyph-name="fawenchuli" unicode="&#xe653;" 
d="M473 334h-204q-6 0 -6 -10.5t6 -10.5h204q7 0 7 10.5t-7 10.5zM473 424h-204q-6 0 -6 -10.5t6 -10.5h204q7 0 7 10.5t-7 10.5zM473 514h-204q-6 0 -6 -10.5t6 -10.5h204q7 0 7 10.5t-7 10.5zM274 581h151q4 0 7.5 3t3.5 7.5t-3.5 7.5t-7.5 3h-151q-5 0 -8 -3t-3 -7.5
t3 -7.5t8 -3zM719 630l-105 104q-8 8 -19 8h-417q-11 0 -19 -8t-8 -19v-726q0 -12 8 -20t19 -8h259q-16 26 -26 55h-206v672h361v-89q0 -7 5 -11.5t12 -4.5h90v-250q28 -4 54 -14v292q0 11 -8 19zM670 -57l-97 70q-5 4 -10.5 1t-5.5 -10v-39q-62 37 -72 108q-2 10 -10 16.5
t-18 5t-16 -9.5t-5 -18q9 -67 56 -113q28 -28 65 -43v-47q0 -4 3 -7q1 -2 2 -2q6 -3 11 1l97 70q4 3 4 8.5t-4 8.5zM828 124l40 24q6 3 5.5 9.5t-6.5 9.5l-110 47q-5 2 -9.5 -1t-4.5 -8l-11 -119q-1 -5 3 -8l2 -2q5 -3 11 0l33 20q1 -71 -54 -116q-8 -7 -9 -17t5 -18
q1 -1 2 -1q7 -7 16 -7.5t17 5.5q41 34 59.5 82.5t10.5 99.5zM597.5 195.5q0.5 6.5 -5.5 9.5l-34 19q62 37 129 11q10 -4 19 0t13 13.5t-0.5 18.5t-13.5 13q-51 19 -102.5 11.5t-92.5 -40.5l-40 23q-6 3 -11.5 -0.5t-4.5 -9.5l14 -119q0 -4 3 -6l2 -2q5 -2 10 0l108 50
q6 2 6.5 8.5z" />
    <glyph glyph-name="fawenliebiao" unicode="&#xe654;" 
d="M473 334h-204q-6 0 -6 -10.5t6 -10.5h204q7 0 7 10.5t-7 10.5zM473 424h-204q-6 0 -6 -10.5t6 -10.5h204q7 0 7 10.5t-7 10.5zM473 514h-204q-6 0 -6 -10.5t6 -10.5h204q7 0 7 10.5t-7 10.5zM274 581h151q4 0 7.5 3t3.5 7.5t-3.5 7.5t-7.5 3h-151q-5 0 -8 -3t-3 -7.5
t3 -7.5t8 -3zM719 630l-105 104q-8 8 -19 8h-417q-11 0 -19 -8t-8 -19v-726q0 -12 8 -20t19 -8h259q-16 26 -26 55h-206v672h361v-89q0 -7 5 -11.5t12 -4.5h90v-250q28 -4 54 -14v292q0 11 -8 19zM791 286h-46v8q0 6 -6 6t-6 -6v-8h-56v8q0 6 -6 6t-6 -6v-8h-57v8q0 6 -6 6
t-6 -6v-8h-57v8q0 6 -6 6t-6 -6v-8h-45q-6 0 -10.5 -4.5t-4.5 -10.5v-369q0 -7 4.5 -11t10.5 -4h309q7 0 11 4t4 11v369q0 6 -4 10.5t-11 4.5zM739 212q6 0 6 6v15q10 -4 10 -15q0 -6 -4.5 -10.5t-11 -4.5t-11 4.5t-4.5 10.5q0 11 9 15v-15q0 -6 6 -6zM671 212q6 0 6 6v15
q9 -4 9 -15q0 -6 -4.5 -10.5t-11 -4.5t-11 4.5t-4.5 10.5q0 11 10 15v-15q0 -6 6 -6zM602 212q6 0 6 6v15q10 -4 10 -15q0 -6 -5 -10.5t-11 -4.5t-10.5 4.5t-4.5 10.5q0 11 9 15v-15q0 -6 6 -6zM533 212q6 0 6 6v15q10 -4 10 -15q0 -6 -4.5 -10.5t-11 -4.5t-11 4.5
t-4.5 10.5q0 11 9 15v-15q0 -6 6 -6zM776 -83h-279v339h30v-11q-9 -2 -15 -9.5t-6 -17.5q0 -11 8 -19t19.5 -8t19.5 8t8 19q0 10 -6 17.5t-16 9.5v11h57v-11q-9 -2 -15 -9.5t-6 -17.5q0 -11 8 -19t19 -8t19.5 8t8.5 19q0 10 -6.5 17.5t-15.5 9.5v11h57v-11q-10 -2 -16 -9.5
t-6 -17.5q0 -11 8 -19t19.5 -8t19.5 8t8 19q0 10 -6 17.5t-15 9.5v11h56v-11q-9 -2 -15 -9.5t-6 -17.5q0 -11 8 -19t19.5 -8t19.5 8t8 19q0 10 -6 17.5t-16 9.5v11h31v-339zM738 -28h-203q-6 0 -6 -6t6 -6h203q6 0 6 6t-6 6zM738 27h-203q-6 0 -6 -6q0 -2 1.5 -4t4.5 -2h203
q6 0 6 6t-6 6zM738 82h-203q-6 0 -6 -6t6 -6h203q6 0 6 6t-6 6zM535 125h93q6 0 6 6t-6 6h-93q-6 0 -6 -6t6 -6z" />
    <glyph glyph-name="qq" unicode="&#xe692;" 
d="M512 812q-104 0 -199 -40.5t-163.5 -109t-109 -163.5t-40.5 -199t40.5 -199t109 -163.5t163.5 -109t199 -40.5t199 40.5t163.5 109t109 163.5t40.5 199t-40.5 199t-109 163.5t-163.5 109t-199 40.5zM794 140q-10 -8 -25.5 0.5t-32.5 31.5q-14 -38 -36 -71q51 -18 51 -47
q0 -25 -39 -43t-94 -18q-66 0 -106 24q-39 -24 -106 -24q-55 0 -93.5 18t-38.5 43q0 29 50 47q-21 32 -36 71q-16 -23 -31.5 -31.5t-25.5 -0.5q-14 13 -9.5 52.5t24.5 81.5q9 20 20 35q3 124 74.5 211t171.5 87v0q101 0 172.5 -87t74.5 -211q10 -15 19 -35
q20 -42 24.5 -81.5t-8.5 -52.5z" />
    <glyph glyph-name="shangjiantou2" unicode="&#xe69b;" 
d="M374 195h274v137h273l-409 452l-411 -452h273v-137zM374 160h275v-69h-275v69zM374 56h274v-33h-274v33zM374 -12h274v-34h-274v34zM374 -81h274v-34h-274v34zM374 -150h274v-34h-274v34z" />
    <glyph glyph-name="xiajiantou2" unicode="&#xe69c;" 
d="M648 406h-274v-137h-273l409 -453l411 453h-273v137zM374 510h275v-69h-275v69zM374 578h274v-34h-274v34zM374 647h274v-34h-274v34zM374 715h274v-33h-274v33zM374 784h274v-34h-274v34z" />
    <glyph glyph-name="iconfontworkflow" unicode="&#xe655;" 
d="M174 404l94 -48q3 9 9 18l-94 48q-2 -10 -9 -18v0zM822 700q6 -19 -2 -37.5t-27 -25t-37.5 2t-24.5 27.5q-7 18 1.5 36t27.5 26q19 6 37 -2.5t25 -26.5v0zM174 454q7 -19 -1.5 -37.5t-27 -25t-37 2t-25.5 27.5q-6 18 2.5 36t27.5 26q18 6 36.5 -2.5t24.5 -26.5v0z
M464 318q-2 41 -32.5 68.5t-71.5 25.5q-40 -2 -67.5 -32t-25.5 -71t32 -68.5t71 -25.5t68.5 32t25.5 71v0zM315 -126q25 -28 63 -29.5t66 23.5q28 26 29.5 64t-23.5 66q-26 28 -63.5 29.5t-65.5 -24t-30 -63.5t24 -66v0v0zM940 285q7 -18 -1.5 -36.5t-27.5 -25.5t-37 2
t-25 28q-7 18 1.5 36t27.5 25t37 -1.5t25 -27.5v0zM793 474q14 -37 -3 -73.5t-55 -50.5q-37 -13 -73.5 4t-50.5 54q-13 37 4 73.5t54 50.5q38 14 74.5 -3t49.5 -55v0zM466 346l144 51q-4 9 -7 19l-145 -52q5 -8 8 -18v0zM772 366l78 -66q6 9 15 14l-80 67q-6 -9 -13 -15v0z
M742 537l28 92q-10 1 -19 6l-28 -92q9 -1 19 -6v0zM361 207l10 -170q10 1 20 0l-10 171q-10 -2 -20 -1v0z" />
    <glyph glyph-name="yuanquan" unicode="&#xe656;" 
d="M940 710zM982 610zM524 547q97 0 166 -69t69 -166t-69 -165.5t-166 -68.5t-165.5 68.5t-68.5 165.5t68.5 166t165.5 69zM524 690q-102 0 -189 -50.5t-138 -137.5t-51 -189.5t51 -189.5t138 -138t189.5 -51t189.5 51t137.5 138t50.5 189.5t-50.5 189.5t-137.5 137.5
t-190 50.5v0z" />
    <glyph glyph-name="icon19" unicode="&#xe657;" 
d="M306.5 576q14.5 0 24.5 10t10 24v103q0 15 -10 25t-24.5 10t-24.5 -10t-10 -25v-103q0 -14 10 -24t24.5 -10zM858 679h-69v-69q0 -29 -20.5 -49t-49 -20t-48.5 20t-20 49v69h-276v-69q0 -29 -20 -49t-48.5 -20t-48.5 20t-20 49v69h-69q-43 0 -73.5 -30.5t-30.5 -72.5
v-620q0 -43 30.5 -73.5t73.5 -30.5h689q42 0 72.5 30.5t30.5 73.5v620q0 42 -30.5 72.5t-72.5 30.5zM892 -44q0 -15 -10 -25t-24 -10h-689q-15 0 -25 10t-10 25v482h758v-482zM720 576q14 0 24 10t10 24v103q0 15 -10 25t-24 10t-24.5 -10t-10.5 -25v-103q0 -14 10.5 -24
t24.5 -10zM460 9q12 -12 27 -12t25 15l204 301q5 7 3.5 15.5t-8.5 13.5l-35 23q-7 5 -15.5 3.5t-13.5 -8.5l-169 -250l-78 78q-6 6 -15 6t-15 -6l-29 -30q-6 -6 -6 -14.5t6 -14.5z" />
    <glyph glyph-name="youxiangtijianquxiao" unicode="&#xe68a;" 
d="M512 -198q-92 0 -176 36t-144.5 96.5t-96 144.5t-35.5 176q0 137 74.5 249t196.5 165v-136q-69 -46 -110 -119t-41 -159q0 -90 44.5 -166.5t121 -121t166.5 -44.5t166.5 44.5t121 121t44.5 166.5q0 86 -41 159t-110 119v136q122 -53 196.5 -165t74.5 -249
q0 -92 -35.5 -176t-96 -144.5t-144.5 -96.5t-176 -36zM527 194h-30q-19 0 -32 13.5t-13 32.5v512q0 19 13 32.5t32 13.5h30q19 0 32 -13.5t13 -32.5v-512q0 -19 -13 -32.5t-32 -13.5z" />
    <glyph glyph-name="daibanrenwu" unicode="&#xe658;" 
d="M831 765q27 14 59 14q51 0 87 -33.5t36 -79.5q0 -39 -26 -70zM1013 300q0 -102 -39.5 -195t-107 -160t-160 -106.5t-194.5 -39.5t-195 39.5t-160 106.5t-107 160t-40 195t40 195t107 160t160 106.5t195 39.5t194.5 -39.5t160 -106.5t107 -160t39.5 -195zM511.5 710
q-111.5 0 -206 -55t-149.5 -149.5t-55 -205.5t55 -205.5t149.5 -149.5t206 -55t206 55t149.5 149.5t55 205.5t-55 205.5t-149.5 149.5t-206 55zM472 120l-37.5 32.5t-83.5 74t-64 59.5q-14 14 -17 28.5t4 24.5t17.5 15.5t25 3t25.5 -13.5q15 -15 47.5 -44.5t58 -51.5
t24.5 -21q186 156 218 188q21 21 43.5 15.5t26 -25t-11.5 -38.5q-21 -21 -90 -83t-128.5 -114t-57.5 -50zM10 666q0 46 36 79.5t87 33.5q32 0 60 -14l-157 -169q-26 31 -26 70z" />
    <glyph glyph-name="zhengpinbaozhang1" unicode="&#xe659;" horiz-adv-x="1025" 
d="M512.5 703q109.5 0 202.5 -54t147 -147t54 -202t-54 -202t-147 -147t-202.5 -54t-202.5 54t-147 147t-54 202t54 202t147 147t202.5 54zM512 748q-91 0 -174 -35.5t-143 -95.5t-95.5 -143t-35.5 -174t35.5 -174t95.5 -143t143 -95.5t174.5 -35.5t174.5 35.5t143 95.5
t95.5 143t35.5 174t-35.5 174t-95.5 143t-143 95.5t-175 35.5v0zM649 503q-18 0 -50 9.5t-56 18.5l-23 9q-86 -37 -125 -37q-34 0 -67 9.5t-50 18.5l-17 9v-316q0 -22 9 -43t23.5 -38.5t33.5 -33t40 -28t42 -23t40 -18t33.5 -12.5t23 -8t8.5 -2q6 1 14.5 3.5t34.5 12.5
t49.5 21t52.5 29t49.5 37.5t34.5 46t14 54.5v318q-5 -4 -15 -10t-40 -16.5t-59 -10.5zM721 229q-239 -75 -348 -107q-20 16 -36.5 35.5t-22.5 30.5l-7 12l414 123v-94v0zM721 363l-418 -121v94l418 121v-94z" />
    <glyph glyph-name="weixin1" unicode="&#xe693;" 
d="M693 465q15 0 35 -2q-23 109 -127.5 181.5t-238.5 72.5q-98 0 -181 -40.5t-132 -111.5t-49 -156q0 -143 145 -245l-36 -109l127 64q6 -2 25 -5.5t27 -5t22.5 -4t26.5 -3t25 -0.5q16 0 34 1q-11 38 -11 76q0 119 89.5 203t218.5 84zM498 563q21 0 33.5 -12.5t12.5 -33
t-12.5 -33t-33.5 -12.5t-37.5 13t-16.5 32.5t16.5 32.5t37.5 13zM245 472q-22 0 -38.5 13t-16.5 32.5t16.5 32.5t38.5 13q20 0 32.5 -12.5t12.5 -33t-12.5 -33t-32.5 -12.5zM1024 182q0 71 -43 132t-113.5 96t-151.5 35q-129 0 -218.5 -77t-89.5 -186t89.5 -186t218.5 -77
q37 0 109 18l99 -54l-27 90q127 96 127 209zM616 228q-13 0 -24.5 11t-11.5 24.5t11.5 25t24.5 11.5q20 0 33 -11t13 -25.5t-13 -25t-33 -10.5zM815 228q-13 0 -24.5 11t-11.5 24.5t11.5 25t24.5 11.5q20 0 33 -11t13 -25.5t-13 -25t-33 -10.5z" />
    <glyph glyph-name="duihao" unicode="&#xe65a;" 
d="M512 648q-95 0 -175.5 -46.5t-127.5 -127t-47 -175.5t47 -175.5t127.5 -127.5t175.5 -47t175.5 47t127 127.5t46.5 175.5t-46.5 175.5t-127 127t-175.5 46.5zM457 -8l-148 251l-62 -18l-27 86l133 41l112 -194l284 343l28 -107z" />
    <glyph glyph-name="shenpi" unicode="&#xe6b1;" 
d="M874 327h-16q-10 0 -17.5 -7.5t-7.5 -17.5v-67v-1v-252q0 -14 -10 -23.5t-24 -9.5h-636q-14 0 -23.5 9.5t-9.5 23.5v603q0 13 9.5 23t23.5 10h454v0v0h68q10 0 17.5 7.5t7.5 18.5v15q0 11 -7.5 18.5t-17.5 7.5h-1h-67h-487q-28 0 -47.5 -19.5t-19.5 -47.5v-669
q0 -28 19.5 -47.5t47.5 -19.5h703q27 0 46.5 19.5t19.5 47.5v353v0q0 10 -7.5 17.5t-17.5 7.5zM974 542q-2 5 -6 8l-97 97q0 1 -1 1l-6 7q-8 7 -18.5 7t-17.5 -7l-423 -423q-9 -9 -8 -21v-3v-84v-16v-1q0 -10 7.5 -17.5t18.5 -7.5h15h6h79q13 -3 23 7l423 423q13 13 5 30z
M512 149h-48v48l52 52l48 -48zM611 249l-47 47l282 282l47 -47z" />
    <glyph glyph-name="dingwei" unicode="&#xe65b;" 
d="M1004 320h-120q-8 142 -109 243t-243 109v120q0 8 -6 14t-14 6t-14 -6t-6 -14v-120q-142 -8 -243 -109t-109 -243h-120q-8 0 -14 -6t-6 -14t6 -14t14 -6h120q8 -142 109 -243t243 -109v-120q0 -8 6 -14t14 -6t14 6t6 14v120q142 8 243 109t109 243h120q8 0 14 6t6 14
t-6 14t-14 6zM532 -31v128q0 8 -6 14t-14 6t-14 -6t-6 -14v-128q-125 8 -214 97t-97 214h128q8 0 14 6t6 14t-6 14t-14 6h-128q8 125 97 214t214 97v-128q0 -8 6 -14t14 -6t14 6t6 14v128q125 -8 214 -97t97 -214h-128q-8 0 -14 -6t-6 -14t6 -14t14 -6h128q-8 -125 -97 -214
t-214 -97z" />
    <glyph glyph-name="duihao1" unicode="&#xe65c;" 
d="M956 540l-85 85q-9 9 -18 0l-451 -451l-231 231q-9 8 -18 0l-85 -85q-9 -9 0 -18l325 -325q2 -2 4 -3q8 -3 13 3l546 545q8 9 0 18z" />
    <glyph glyph-name="10yiban" unicode="&#xe65d;" 
d="M459 24l-201 200l28 28l173 -173l279 280l28 -28zM897 -212h-770q-19 0 -32.5 13.5t-13.5 32.5v778q0 19 13.5 32.5t32.5 13.5h91v-39h-91q-7 0 -7 -7v-778q0 -6 7 -6h770q7 0 7 6v778q0 7 -7 7h-91v39h91q19 0 32.5 -13.5t13.5 -32.5v-778q0 -19 -13.5 -32.5
t-32.5 -13.5zM707 550h-390q-21 0 -33 15.5t-7 36.5l14 57q5 17 20.5 29.5t33.5 12.5h56q4 0 9 3.5t6 8.5l14 57q5 18 20.5 30t33.5 12h56q18 0 33.5 -12t20.5 -30l14 -57q1 -5 6 -8.5t9 -3.5h56q18 0 33.5 -12.5t20.5 -29.5l14 -57q5 -21 -7 -36.5t-33 -15.5zM345 661
q-5 0 -9.5 -3.5t-5.5 -8.5l-14 -57l391 -2h2l-15 59q-1 5 -6 8.5t-9 3.5h-56q-18 0 -33.5 12.5t-20.5 29.5l-14 57q-1 5 -6 9t-9 4h-56q-4 0 -9 -4t-6 -9l-15 -57q-4 -17 -19.5 -29.5t-33.5 -12.5h-56v0z" />
    <glyph glyph-name="14duban" unicode="&#xe65e;" 
d="M192 812h96v-64h-96v64zM576 812h96v-64h-96v64zM192 716h96v-64h-96v64zM576 716h96v-64h-96v64zM616 -212h-484q-55 0 -93.5 38.5t-38.5 93.5v696q0 55 38.5 93.5t93.5 38.5h563q55 0 93.5 -38.5t38.5 -93.5v-297q0 -6 -4.5 -11t-11.5 -5t-11.5 5t-4.5 11v297
q0 42 -29 71t-71 29h-563q-42 0 -71 -29t-29 -71v-696q0 -42 29 -71t71 -29h484q7 0 11.5 -4.5t4.5 -11.5t-4.5 -11.5t-11.5 -4.5zM449 441h-229q-7 0 -11.5 4.5t-4.5 11.5t4.5 11.5t11.5 4.5h229q7 0 11.5 -4.5t4.5 -11.5t-4.5 -11.5t-11.5 -4.5zM449 338h-229
q-7 0 -11.5 4.5t-4.5 11.5t4.5 11.5t11.5 4.5h229q7 0 11.5 -4.5t4.5 -11.5t-4.5 -11.5t-11.5 -4.5zM782 -212q-101 0 -172 71t-71 171.5t71 171.5t172 71t171.5 -65.5t70.5 -164.5q0 -102 -71.5 -178.5t-170.5 -76.5zM782 241q-87 0 -149 -62t-62 -149t62 -148.5t149 -61.5
t148.5 61.5t61.5 148.5t-61.5 149t-148.5 62zM782 -16q-19 0 -33 13.5t-14 32.5t14 33t33 14t32.5 -14t13.5 -33t-13.5 -32.5t-32.5 -13.5zM781.5 45q-5.5 0 -10 -4.5t-4.5 -10t4.5 -10t10 -4.5t10 4.5t4.5 10t-4.5 10t-10 4.5zM781.5 53q-6.5 0 -11 5t-4.5 11v120
q0 7 4.5 11.5t11 4.5t11.5 -4.5t5 -11.5v-120q0 -6 -5 -11t-11.5 -5zM937 14h-120q-6 0 -11 5t-5 11.5t5 11t11 4.5h120q7 0 11.5 -4.5t4.5 -11t-4.5 -11.5t-11.5 -5z" />
    <glyph glyph-name="26qitashenqingguidang" unicode="&#xe65f;" 
d="M215 810h-198q-7 0 -11.5 -5t-4.5 -11v-749q0 -7 4.5 -11.5t11.5 -4.5h198q6 0 11 4.5t5 11.5v749q0 6 -5 11t-11 5zM199 61h-166v717h166v-717v0zM78 649h75v-32h-75v32zM78 436h76v-31h-76v31zM78 543h75v-32h-75v32zM338 649h76v-32h-76v32zM338 436h76v-31h-76v31z
M338 543h76v-32h-76v32zM647 651h76v-32h-76v32zM647 546h76v-32h-76v32zM607 780h161v-290q7 -1 17.5 -5.5t14.5 -5.5v317q0 7 -4.5 11.5t-11.5 4.5h-193q-6 0 -11 -4.5t-5 -11.5v-314q6 3 17.5 5.5t14.5 3.5v289zM288 61v717h160v-346q17 11 32 18v344q0 6 -4.5 11
t-11.5 5h-192q-7 0 -11.5 -5t-4.5 -11v-749q0 -7 4.5 -11.5t11.5 -4.5h48q-5 16 -8 32h-24zM770 471q-16 4 -32 7q-33 6 -63 6q-52 0 -101 -15q-16 -4 -32 -11q-8 -4 -20 -9q-16 -8 -32 -18q-75 -47 -119 -125t-44 -170q0 -34 6 -68l8 -32q33 -109 125 -178.5t209 -69.5
q94 0 174.5 46.5t127 127t46.5 174.5q0 118 -71 210.5t-182 124.5zM675 -180q-103 0 -185.5 60.5t-114.5 155.5q-6 17 -9 32q-8 34 -8 68q0 78 35.5 145t96.5 111q15 10 32 20q19 11 20 11q16 8 32 13q50 17 101 17q32 0 63 -7q16 -3 32 -8q97 -31 159 -114t62 -188
q0 -131 -92.5 -223.5t-223.5 -92.5zM546 178q0 10 7 17t17 7t17 -7t7 -17t-7 -17t-17 -7t-17 7t-7 17zM650 178q0 10 7 17t17 7t17 -7.5t7 -17t-7 -16.5t-17 -7t-17 7t-7 17zM755 178q0 10 7 17t16 7q10 0 17 -7.5t7 -17t-7 -16.5t-17 -7t-16.5 7t-6.5 17zM546 79q0 10 7 17
t17 7t17 -7t7 -17t-7 -17t-17 -7t-17 7t-7 17zM650 79q0 10 7 17t17 7t17 -7t7 -17t-7 -17t-17 -7t-17 7t-7 17zM755 79q0 10 7 17t16 7q10 0 17 -7t7 -17t-7 -17t-17 -7t-16.5 7t-6.5 17z" />
    <glyph glyph-name="icon" unicode="&#xe660;" 
d="M517 193q-96 70 -96 321l-47 1v0v-18.5t2.5 -43.5t7 -62t15.5 -66.5t25.5 -63.5t38.5 -46.5t54 -21.5zM512 748q-91 0 -174 -35.5t-143 -95.5t-95.5 -143t-35.5 -174t35.5 -174t95.5 -143t143 -95.5t174 -35.5t174 35.5t143 95.5t95.5 143t35.5 174t-35.5 174t-95.5 143
t-143 95.5t-174 35.5zM327 551h372v-21v-38v-39.5v-20.5q0 -112 -54.5 -192t-130.5 -80q-75 0 -131.5 80t-56.5 192q0 106 1 119zM573 69q13 0 21.5 -8.5t8.5 -21t-8.5 -21.5t-21.5 -9h-121q-12 0 -21 9t-9 21.5t9 21t21 8.5h121zM479 110q0 13 9.5 22.5t22.5 9.5t22.5 -9.5
t9.5 -22.5t-9.5 -22.5t-22.5 -9.5t-22.5 9.5t-9.5 22.5zM322 249q-45 0 -73.5 51t-28.5 114q0 50 26 80t67 30v-41q-27 0 -43.5 -18t-16.5 -51q0 -46 18.5 -86t50.5 -40q2 0 6 1q9 -20 19 -37q-13 -3 -25 -3zM362 -51q0 48 30 48h229q30 0 30 -48h-289zM702 249q-12 0 -25 3
q10 18 19 37q4 -1 6 -1q32 0 50.5 40t18.5 86q0 33 -16.5 51t-43.5 18v41q41 0 67 -30t26 -80q0 -63 -28.5 -114t-73.5 -51z" />
    <glyph glyph-name="03fuzhubangong" unicode="&#xe661;" 
d="M607 90q-20 0 -34.5 -14t-14.5 -34t14.5 -34t34.5 -14t34 14t14 34t-14 34t-34 14zM321 418l8 31l-124 33l-8 -31zM346 510l-124 33l-9 -31l124 -32zM418 656l-186 49q-13 3 -24.5 -3.5t-14.5 -19.5l-191 -706q-4 -13 3 -24t19 -15l186 -49q13 -4 24.5 3t15.5 19l191 707
q3 12 -3.5 23.5t-19.5 15.5zM248.5 28q-10.5 -38 -45 -58t-73 -9.5t-58.5 44.5t-9.5 72t45 58t73 9.5t58.5 -44.5t9.5 -72zM285 164l-186 50l100 368l186 -49zM167.5 97q-19.5 5 -36.5 -5t-22.5 -29t4.5 -36t29.5 -22.5t36.5 4.5t22.5 29t-4.5 36.5t-29.5 22.5zM671 535
h-129v-32h129v32zM960 535h-129v-32h129v32zM960 471h-129v-32h129v32zM671 471h-129v-32h129v32zM992 694h-193q-13 0 -22.5 -9.5t-9.5 -22.5v-731q0 -14 9.5 -23t22.5 -9h193q13 0 22.5 9t9.5 23v731q0 13 -9.5 22.5t-22.5 9.5zM895.5 -53q-39.5 0 -68 27.5t-28.5 67
t28.5 67.5t68 28t68 -28t28.5 -67.5t-28.5 -67t-68 -27.5zM992 185h-193v382h193v-382zM960 408h-129v-32h129v32zM896 90q-20 0 -34.5 -14t-14.5 -34t14.5 -34t34.5 -14t34 14t14 34t-14 34t-34 14zM671 408h-129v-32h129v32zM703 694h-193q-13 0 -22.5 -9.5t-9.5 -22.5
v-731q0 -14 9.5 -23t22.5 -9h193q13 0 22.5 9t9.5 23v731q0 13 -9.5 22.5t-22.5 9.5zM607 -51q-40 0 -68.5 27.5t-28.5 67t28.5 67.5t68.5 28t68 -28t28 -67.5t-28 -67t-68 -27.5zM703 185h-193v382h193v-382zM180 390l124 -33l8 30l-124 33z" />
    <glyph glyph-name="cangkukuojian" unicode="&#xe662;" 
d="M927 538v0v0.5v0.5q-5 7 -12.5 9t-15 -2t-9.5 -12t2 -15l0.5 -0.5l0.5 -0.5v0q58 -101 58 -218q0 -89 -35 -170.5t-93.5 -140t-140 -93.5t-170.5 -35t-170.5 35t-140 93.5t-93.5 140t-35 170.5t35 170.5t93.5 140t140 93.5t170.5 35q117 0 218 -59v0h1v0v0q7 -4 15 -1.5
t12 9.5t2 14.5t-9 12.5v0q-111 64 -239 64q-97 0 -186 -38t-153 -102t-102 -153t-38 -186t38 -186t102 -153t153 -102t186.5 -38t186 38t152.5 102t102 153t38 186q0 128 -64 238zM449 60h-128h-96v443q0 18 20 18h250q6 0 11.5 -5t5.5 -12v-444h-63v0zM480 490h-223v-399
h223v399v0zM352 410h-64v49h64v-49v0zM352 330h-64v48h64v-48v0zM352 171h-64v47h64v-47v0zM449 330h-64v48h64v-48v0zM449 250h-64v48h64v-48v0zM449 171h-64v47h64v-47v0zM768 60h-128h-96v332q0 17 19 17h219q6 0 11.5 -5t5.5 -11v-333h-31v0v0zM767 378h-191v-287h191
v287v0zM655 298h-64v49h64v-49v0zM655 139h-64v47h64v-47v0zM751 298h-63v49h63v-49v0zM751 219h-63v47h63v-47v0z" />
    <glyph glyph-name="yonghu" unicode="&#xe6ed;" 
d="M512 729q-91 0 -174 -35.5t-143 -95.5t-95.5 -143t-35.5 -174t35.5 -174t95.5 -143t143 -95.5t174 -35.5t174 35.5t143 95.5t95.5 143t35.5 174t-35.5 174t-95.5 143t-143 95.5t-174 35.5zM512 665q104 0 192.5 -51.5t140 -140t51.5 -192.5q0 -126 -76 -228
q-73 115 -202 154q38 26 60 67t22 88q0 78 -55 133t-133 55t-133 -55t-55 -133q0 -48 22.5 -89t60.5 -67q-63 -19 -114.5 -59.5t-86.5 -96.5q-78 103 -78 231q0 104 51.5 192.5t140 140t192.5 51.5zM388 362q0 51 36.5 87.5t87.5 36.5t87.5 -36.5t36.5 -87.5t-36.5 -87.5
t-87.5 -36.5t-87.5 36.5t-36.5 87.5zM251 0q39 72 109 115t154 43q83 0 153 -42.5t109 -113.5q-111 -105 -264 -105q-150 0 -261 103z" />
    <glyph glyph-name="youjiantouquan" unicode="&#xe663;" 
d="M423.5 45.5q10.5 -10.5 25 -10.5t24.5 11l213 212q11 11 11 25.5t-11 25.5l-213 213q-10 10 -24.5 10t-25 -10.5t-10.5 -25t10 -25.5l188 -187l-188 -188q-10 -10 -10 -25t10.5 -25.5zM512 -193q97 0 185 37.5t152 101.5t102 152.5t38 185.5t-38 185t-102 152t-152 101.5
t-185 37.5t-185 -37.5t-152 -101.5t-102 -152t-38 -185t38 -185.5t102 -152.5t152 -101.5t185 -37.5zM516.5 701q112.5 0 208 -55.5t151 -151t55.5 -208.5t-55.5 -208.5t-151 -151t-208 -55.5t-208.5 55.5t-151 151t-55 208.5t55 208.5t151 151t208.5 55.5z" />
    </font>
</defs>
</svg>
